<svg xmlns="http://www.w3.org/2000/svg" xmlns:xlink="http://www.w3.org/1999/xlink" width="1920" zoomAndPan="magnify" viewBox="0 0 1440 809.999993" height="1080" preserveAspectRatio="xMidYMid meet" version="1.0"><defs><clipPath id="88c68fc555"><path d="M 856 69 L 1229 69 L 1229 217.585938 L 856 217.585938 Z M 856 69 " clip-rule="nonzero"/></clipPath><clipPath id="79b39a5969"><path d="M 856 124 L 1217 124 L 1217 217.585938 L 856 217.585938 Z M 856 124 " clip-rule="nonzero"/></clipPath><clipPath id="15c84d9fb7"><path d="M 808 363 L 1074 363 L 1074 468.683594 L 808 468.683594 Z M 808 363 " clip-rule="nonzero"/></clipPath><clipPath id="da9dafb52f"><path d="M 808 402 L 1065 402 L 1065 468.683594 L 808 468.683594 Z M 808 402 " clip-rule="nonzero"/></clipPath><clipPath id="01702c6244"><path d="M 1119.121094 150 L 1440 150 L 1440 436 L 1119.121094 436 Z M 1119.121094 150 " clip-rule="nonzero"/></clipPath><clipPath id="9aeba9ace1"><path d="M 1210 236 L 1440 236 L 1440 682.90625 L 1210 682.90625 Z M 1210 236 " clip-rule="nonzero"/></clipPath></defs><g clip-path="url(#88c68fc555)"><path fill="#fffbea" d="M 1225.648438 190.328125 C 1223.25 187.644531 1219.464844 186.25 1215.890625 186.75 C 1215.714844 186.777344 1215.53125 186.804688 1215.351562 186.84375 C 1215.132812 183.121094 1213.664062 179.5 1211.078125 176.695312 C 1208.167969 173.542969 1204.367188 172.058594 1200.378906 171.90625 C 1201.265625 168.421875 1204.007812 165.449219 1202.648438 161.375 C 1200.800781 155.828125 1195.207031 151.75 1189.355469 151.683594 C 1187.507812 151.660156 1185.644531 151.996094 1183.835938 151.632812 C 1182.03125 151.265625 1182.980469 148.789062 1183.0625 146.949219 C 1183.347656 140.484375 1183.410156 133.308594 1179.140625 128.429688 C 1176.578125 125.496094 1172.78125 123.878906 1168.941406 123.234375 C 1165.609375 122.671875 1161.757812 122.414062 1158.417969 123.253906 C 1157.5625 123.457031 1156.742188 123.742188 1155.976562 124.113281 C 1155.996094 122.964844 1155.957031 121.835938 1155.855469 120.714844 C 1153.769531 96.917969 1125.300781 78.628906 1102.292969 84.761719 C 1096.875 86.203125 1081.773438 93.300781 1084.246094 101.617188 C 1080.453125 88.867188 1070.917969 77.769531 1059.214844 71.570312 C 1050.289062 66.84375 1035.476562 70.136719 1027.171875 74.84375 C 1010.632812 84.222656 1001.300781 103.636719 1001.078125 122.617188 C 1001.078125 119.214844 986.757812 116.765625 984.300781 116.460938 C 975.324219 115.328125 968.046875 122.699219 962.726562 129.554688 C 956.59375 137.46875 958.394531 146.027344 955.246094 154.785156 C 955.617188 152.800781 942.316406 155.050781 941.011719 155.9375 C 936.617188 158.933594 934.847656 164.765625 933.503906 169.628906 C 931.023438 164.957031 923.804688 163.960938 919.949219 167.425781 C 919.65625 167.679688 919.382812 167.964844 919.136719 168.277344 C 917.964844 169.75 917.300781 171.558594 916.242188 173.121094 C 915.277344 174.539062 914.039062 175.675781 912.652344 176.636719 C 912.613281 176.59375 912.582031 176.546875 912.542969 176.503906 C 907.53125 170.878906 898.246094 171.867188 891.648438 175.515625 C 888.125 177.464844 884.84375 180.496094 882.914062 183.988281 C 881.324219 183.921875 879.726562 184.15625 878.261719 184.75 C 872.644531 187.023438 869.339844 192.902344 868.9375 198.789062 C 868.910156 199.203125 868.902344 199.617188 868.902344 200.027344 C 866.375 203.117188 865.242188 207.378906 866.796875 211.09375 C 865.703125 210.160156 864.277344 209.683594 862.839844 209.65625 C 861.011719 209.613281 859.160156 210.296875 857.921875 211.652344 C 856.496094 213.230469 856.058594 215.546875 856.578125 217.601562 L 1215.992188 217.601562 C 1216.375 216.429688 1216.417969 215.152344 1216.3125 213.910156 C 1216.101562 211.363281 1215.242188 208.914062 1213.914062 206.734375 L 1227.886719 206.734375 C 1229.316406 200.976562 1229.492188 194.632812 1225.648438 190.328125 Z M 1225.648438 190.328125 " fill-opacity="1" fill-rule="nonzero"/></g><path fill="#ffffff" d="M 1227.886719 206.734375 L 870.746094 206.734375 C 869.605469 204.953125 868.992188 202.792969 868.910156 200.664062 C 868.886719 200.042969 868.894531 199.414062 868.9375 198.789062 C 869.339844 192.902344 872.644531 187.023438 878.261719 184.75 C 880.980469 183.644531 884.164062 183.746094 886.894531 184.8125 C 889.929688 185.984375 892.40625 188.34375 893.085938 191.53125 C 893.761719 186.460938 898.71875 183.167969 903.414062 181.128906 C 908.113281 179.089844 913.367188 177.351562 916.242188 173.121094 C 917.300781 171.558594 917.964844 169.75 919.136719 168.277344 C 919.382812 167.964844 919.65625 167.679688 919.949219 167.425781 C 923.804688 163.960938 931.023438 164.957031 933.503906 169.628906 C 934.847656 164.765625 936.617188 158.933594 941.011719 155.9375 C 942.316406 155.050781 955.617188 152.800781 955.246094 154.785156 C 958.394531 146.027344 956.59375 137.46875 962.726562 129.554688 C 968.046875 122.699219 975.324219 115.328125 984.300781 116.460938 C 986.757812 116.765625 1001.078125 119.214844 1001.078125 122.617188 C 1001.300781 103.636719 1010.632812 84.222656 1027.171875 74.84375 C 1035.476562 70.136719 1050.289062 66.84375 1059.214844 71.570312 C 1070.917969 77.769531 1080.453125 88.867188 1084.246094 101.617188 C 1081.773438 93.300781 1096.875 86.203125 1102.292969 84.761719 C 1125.300781 78.628906 1153.769531 96.917969 1155.855469 120.714844 C 1155.957031 121.835938 1155.996094 122.964844 1155.976562 124.113281 C 1156.742188 123.742188 1157.5625 123.457031 1158.414062 123.253906 C 1161.757812 122.414062 1165.609375 122.671875 1168.941406 123.230469 C 1172.78125 123.878906 1176.578125 125.496094 1179.140625 128.429688 C 1183.410156 133.308594 1183.347656 140.484375 1183.0625 146.949219 C 1182.980469 148.789062 1182.03125 151.265625 1183.835938 151.636719 C 1185.644531 151.996094 1187.507812 151.664062 1189.355469 151.683594 C 1195.207031 151.75 1200.800781 155.828125 1202.648438 161.375 C 1204.007812 165.449219 1201.265625 168.421875 1200.378906 171.90625 C 1204.367188 172.058594 1208.167969 173.542969 1211.078125 176.695312 C 1213.664062 179.5 1215.132812 183.121094 1215.351562 186.84375 C 1215.53125 186.804688 1215.714844 186.777344 1215.890625 186.75 C 1219.464844 186.25 1223.25 187.644531 1225.648438 190.332031 C 1229.492188 194.632812 1229.316406 200.976562 1227.886719 206.734375 Z M 1227.886719 206.734375 " fill-opacity="1" fill-rule="nonzero"/><g clip-path="url(#79b39a5969)"><path fill="#fffbea" d="M 1215.992188 217.601562 L 856.578125 217.601562 C 856.058594 215.550781 856.496094 213.230469 857.921875 211.652344 C 859.160156 210.296875 861.011719 209.613281 862.839844 209.65625 C 864.277344 209.683594 865.703125 210.160156 866.796875 211.09375 C 863.839844 204.019531 870.601562 194.96875 878.230469 195.789062 C 879.09375 195.878906 880.042969 196.054688 880.800781 195.679688 C 880.867188 195.644531 880.929688 195.609375 880.992188 195.570312 C 881.777344 195.058594 882.554688 193.496094 881.613281 193.496094 C 879.421875 186.394531 885.136719 179.117188 891.648438 175.515625 C 898.246094 171.867188 907.53125 170.878906 912.542969 176.503906 C 913.042969 177.070312 913.480469 177.664062 913.855469 178.292969 C 918.003906 185.210938 915.070312 195.582031 920.066406 202.261719 C 924.546875 195.050781 931.953125 186.757812 940.851562 193.925781 C 943.351562 195.9375 943.378906 199.566406 945.449219 201.476562 C 949.65625 205.351562 951.800781 198.6875 956.125 196.675781 C 960.449219 194.664062 965.164062 196.339844 969.386719 197.976562 C 970.367188 194.015625 967.992188 190.058594 967.398438 186.015625 C 966.3125 178.585938 971.808594 171.199219 978.902344 168.695312 C 983.878906 166.9375 989.121094 167.371094 994.101562 168.867188 C 999.8125 170.578125 1001.191406 172.984375 1002.769531 165.886719 C 1004.625 157.523438 1010.234375 150.550781 1015.910156 144.125 C 1019.730469 139.808594 1023.847656 135.457031 1029.226562 133.347656 C 1032.222656 132.175781 1035.476562 131.765625 1038.699219 131.753906 C 1046.40625 131.734375 1054.328125 134.128906 1059.898438 139.445312 C 1065.519531 144.828125 1067.070312 151.875 1066.3125 159.335938 C 1071.742188 152.632812 1075.777344 149.507812 1084.695312 150.503906 C 1085.855469 150.632812 1094.777344 155.496094 1094.605469 155.871094 C 1100.015625 143.484375 1104.921875 131.820312 1118.507812 126.734375 C 1128.863281 122.859375 1141.0625 124.101562 1149.601562 131.4375 C 1149.65625 131.488281 1149.710938 131.527344 1149.757812 131.582031 C 1150.667969 132.375 1151.527344 133.21875 1152.320312 134.121094 C 1158.871094 141.488281 1161.625 152.113281 1159.527344 161.785156 C 1158.496094 166.527344 1156.433594 171.621094 1158.539062 176 C 1162.582031 170.980469 1172.390625 173.785156 1173.167969 180.175781 C 1173.484375 182.765625 1172.671875 185.789062 1174.417969 187.734375 C 1177.992188 183.933594 1184.179688 182.910156 1188.792969 185.359375 C 1193.335938 187.78125 1193.664062 191.429688 1195.117188 195.726562 C 1195.949219 198.195312 1194.570312 198.320312 1195.820312 198.953125 C 1196.074219 199.074219 1196.429688 199.226562 1196.929688 199.417969 C 1197.964844 199.804688 1201.230469 198.347656 1202.863281 198.6875 C 1209.96875 200.1875 1215.714844 206.6875 1216.3125 213.910156 C 1216.417969 215.152344 1216.375 216.429688 1215.992188 217.601562 Z M 1215.992188 217.601562 " fill-opacity="1" fill-rule="nonzero"/></g><g clip-path="url(#15c84d9fb7)"><path fill="#fffbea" d="M 1071.277344 449.292969 C 1069.570312 447.378906 1066.871094 446.390625 1064.328125 446.742188 C 1064.199219 446.761719 1064.070312 446.78125 1063.941406 446.8125 C 1063.785156 444.160156 1062.738281 441.585938 1060.894531 439.589844 C 1058.820312 437.347656 1056.113281 436.289062 1053.269531 436.183594 C 1053.902344 433.703125 1055.855469 431.589844 1054.886719 428.691406 C 1053.574219 424.746094 1049.585938 421.84375 1045.414062 421.796875 C 1044.101562 421.78125 1042.769531 422.019531 1041.480469 421.761719 C 1040.195312 421.5 1040.871094 419.738281 1040.929688 418.429688 C 1041.136719 413.828125 1041.179688 408.722656 1038.136719 405.253906 C 1036.3125 403.167969 1033.605469 402.015625 1030.867188 401.554688 C 1028.492188 401.15625 1025.746094 400.972656 1023.367188 401.570312 C 1022.757812 401.714844 1022.175781 401.917969 1021.628906 402.179688 C 1021.644531 401.367188 1021.613281 400.558594 1021.542969 399.765625 C 1020.058594 382.832031 999.765625 369.824219 983.371094 374.1875 C 979.511719 375.210938 968.75 380.261719 970.511719 386.175781 C 967.808594 377.105469 961.011719 369.210938 952.675781 364.800781 C 946.3125 361.4375 935.757812 363.78125 929.839844 367.128906 C 918.054688 373.800781 911.402344 387.613281 911.242188 401.117188 C 911.242188 398.695312 901.039062 396.953125 899.285156 396.734375 C 892.890625 395.929688 887.707031 401.175781 883.914062 406.054688 C 879.542969 411.683594 880.828125 417.773438 878.582031 424.003906 C 878.847656 422.589844 869.367188 424.191406 868.4375 424.824219 C 865.308594 426.953125 864.046875 431.101562 863.089844 434.5625 C 861.320312 431.238281 856.175781 430.53125 853.429688 432.996094 C 853.222656 433.175781 853.027344 433.378906 852.851562 433.601562 C 852.011719 434.652344 851.542969 435.9375 850.785156 437.046875 C 850.097656 438.058594 849.21875 438.863281 848.226562 439.550781 C 848.203125 439.519531 848.179688 439.488281 848.152344 439.457031 C 844.578125 435.453125 837.964844 436.15625 833.261719 438.753906 C 830.75 440.140625 828.414062 442.292969 827.039062 444.78125 C 825.902344 444.730469 824.765625 444.898438 823.722656 445.320312 C 819.71875 446.9375 817.363281 451.121094 817.074219 455.308594 C 817.054688 455.601562 817.050781 455.898438 817.050781 456.191406 C 815.25 458.390625 814.445312 461.421875 815.550781 464.0625 C 814.773438 463.398438 813.753906 463.058594 812.730469 463.039062 C 811.429688 463.011719 810.109375 463.496094 809.226562 464.460938 C 808.210938 465.582031 807.898438 467.234375 808.269531 468.695312 L 1064.398438 468.695312 C 1064.671875 467.859375 1064.699219 466.953125 1064.628906 466.066406 C 1064.476562 464.257812 1063.863281 462.511719 1062.917969 460.960938 L 1072.875 460.960938 C 1073.890625 456.867188 1074.019531 452.351562 1071.277344 449.292969 Z M 1071.277344 449.292969 " fill-opacity="1" fill-rule="nonzero"/></g><path fill="#ffffff" d="M 1072.875 460.960938 L 818.367188 460.960938 C 817.554688 459.695312 817.113281 458.15625 817.054688 456.644531 C 817.042969 456.203125 817.046875 455.753906 817.074219 455.308594 C 817.363281 451.121094 819.71875 446.9375 823.722656 445.320312 C 825.660156 444.535156 827.925781 444.609375 829.875 445.367188 C 832.035156 446.199219 833.800781 447.878906 834.285156 450.144531 C 834.765625 446.539062 838.300781 444.195312 841.644531 442.746094 C 844.992188 441.292969 848.738281 440.054688 850.785156 437.046875 C 851.542969 435.9375 852.011719 434.652344 852.851562 433.601562 C 853.027344 433.378906 853.222656 433.175781 853.429688 432.996094 C 856.175781 430.53125 861.320312 431.238281 863.089844 434.5625 C 864.046875 431.101562 865.308594 426.953125 868.4375 424.824219 C 869.367188 424.191406 878.847656 422.589844 878.582031 424.003906 C 880.828125 417.773438 879.542969 411.683594 883.914062 406.054688 C 887.707031 401.175781 892.890625 395.929688 899.285156 396.734375 C 901.039062 396.953125 911.242188 398.695312 911.242188 401.117188 C 911.402344 387.613281 918.054688 373.800781 929.839844 367.128906 C 935.757812 363.78125 946.3125 361.4375 952.675781 364.800781 C 961.011719 369.210938 967.808594 377.105469 970.511719 386.175781 C 968.75 380.261719 979.511719 375.210938 983.371094 374.1875 C 999.765625 369.824219 1020.058594 382.832031 1021.542969 399.765625 C 1021.613281 400.558594 1021.644531 401.367188 1021.628906 402.179688 C 1022.175781 401.917969 1022.757812 401.714844 1023.367188 401.570312 C 1025.746094 400.972656 1028.492188 401.15625 1030.867188 401.554688 C 1033.605469 402.015625 1036.3125 403.167969 1038.136719 405.253906 C 1041.179688 408.722656 1041.136719 413.828125 1040.929688 418.429688 C 1040.871094 419.738281 1040.195312 421.5 1041.480469 421.761719 C 1042.769531 422.019531 1044.101562 421.78125 1045.414062 421.796875 C 1049.585938 421.84375 1053.574219 424.746094 1054.886719 428.691406 C 1055.855469 431.589844 1053.902344 433.703125 1053.269531 436.183594 C 1056.113281 436.289062 1058.820312 437.347656 1060.894531 439.589844 C 1062.738281 441.585938 1063.785156 444.160156 1063.941406 446.8125 C 1064.070312 446.78125 1064.199219 446.761719 1064.328125 446.742188 C 1066.871094 446.390625 1069.570312 447.378906 1071.277344 449.292969 C 1074.019531 452.351562 1073.890625 456.867188 1072.875 460.960938 Z M 1072.875 460.960938 " fill-opacity="1" fill-rule="nonzero"/><g clip-path="url(#da9dafb52f)"><path fill="#fffbea" d="M 1064.398438 468.695312 L 808.269531 468.695312 C 807.898438 467.234375 808.210938 465.582031 809.226562 464.460938 C 810.109375 463.496094 811.429688 463.011719 812.730469 463.039062 C 813.753906 463.058594 814.773438 463.398438 815.550781 464.0625 C 813.441406 459.03125 818.261719 452.59375 823.699219 453.175781 C 824.3125 453.238281 824.988281 453.363281 825.53125 453.097656 C 825.578125 453.074219 825.621094 453.046875 825.667969 453.019531 C 826.226562 452.65625 826.78125 451.542969 826.109375 451.542969 C 824.546875 446.492188 828.621094 441.316406 833.261719 438.753906 C 837.964844 436.15625 844.578125 435.453125 848.152344 439.457031 C 848.507812 439.859375 848.820312 440.28125 849.085938 440.726562 C 852.042969 445.648438 849.953125 453.027344 853.511719 457.78125 C 856.707031 452.652344 861.980469 446.75 868.324219 451.851562 C 870.105469 453.28125 870.125 455.863281 871.601562 457.222656 C 874.601562 459.976562 876.128906 455.238281 879.210938 453.804688 C 882.292969 452.375 885.648438 453.566406 888.660156 454.730469 C 889.359375 451.914062 887.664062 449.097656 887.242188 446.21875 C 886.46875 440.9375 890.386719 435.679688 895.441406 433.898438 C 898.988281 432.648438 902.722656 432.957031 906.269531 434.019531 C 910.339844 435.238281 911.324219 436.953125 912.449219 431.898438 C 913.773438 425.949219 917.769531 420.992188 921.816406 416.421875 C 924.535156 413.347656 927.472656 410.253906 931.300781 408.753906 C 933.4375 407.917969 935.757812 407.625 938.054688 407.617188 C 943.546875 407.601562 949.191406 409.304688 953.160156 413.089844 C 957.164062 416.917969 958.269531 421.933594 957.730469 427.242188 C 961.601562 422.472656 964.476562 420.25 970.832031 420.957031 C 971.65625 421.050781 978.015625 424.507812 977.894531 424.777344 C 981.75 415.964844 985.246094 407.664062 994.925781 404.046875 C 1002.308594 401.289062 1011 402.171875 1017.085938 407.394531 C 1017.125 407.429688 1017.164062 407.457031 1017.199219 407.496094 C 1017.847656 408.058594 1018.460938 408.660156 1019.023438 409.300781 C 1023.691406 414.542969 1025.652344 422.101562 1024.160156 428.984375 C 1023.425781 432.355469 1021.953125 435.980469 1023.453125 439.097656 C 1026.335938 435.523438 1033.324219 437.519531 1033.882812 442.066406 C 1034.105469 443.910156 1033.527344 446.058594 1034.773438 447.445312 C 1037.316406 444.742188 1041.726562 444.011719 1045.015625 445.753906 C 1048.25 447.476562 1048.484375 450.074219 1049.523438 453.128906 C 1050.117188 454.886719 1049.132812 454.976562 1050.023438 455.425781 C 1050.203125 455.511719 1050.457031 455.621094 1050.8125 455.757812 C 1051.550781 456.03125 1053.878906 454.996094 1055.042969 455.238281 C 1060.105469 456.304688 1064.199219 460.929688 1064.628906 466.066406 C 1064.699219 466.953125 1064.671875 467.859375 1064.398438 468.695312 Z M 1064.398438 468.695312 " fill-opacity="1" fill-rule="nonzero"/></g><g clip-path="url(#01702c6244)"><path fill="#9ba66b" d="M 1484.980469 360.15625 C 1487.527344 363.46875 1487.527344 368.003906 1486.136719 371.734375 C 1482.453125 381.570312 1471.546875 383.460938 1461.820312 383.6875 C 1457.773438 387.984375 1451.023438 389.898438 1445.207031 390.789062 C 1438.292969 391.839844 1432.183594 390.394531 1425.949219 387.597656 C 1419.171875 384.546875 1413.519531 382.097656 1405.835938 382.578125 C 1398.808594 383.015625 1391.914062 384.808594 1384.84375 384.738281 C 1374.273438 384.632812 1363.640625 379.378906 1361.105469 368.882812 C 1358.667969 358.800781 1366.699219 350.894531 1376.214844 348.0625 C 1382.269531 346.261719 1388.585938 346.609375 1394.835938 346.183594 C 1401.144531 345.753906 1406.164062 343.863281 1411.027344 340.023438 C 1420.15625 332.828125 1427.210938 324.414062 1438.921875 320.855469 C 1449.1875 317.734375 1462.03125 318.09375 1471.226562 323.941406 C 1475.667969 326.765625 1479.59375 331.007812 1480.566406 336.160156 C 1481.511719 341.164062 1477.753906 345.285156 1478.359375 350.082031 C 1478.902344 354.382812 1482.492188 356.921875 1484.980469 360.15625 Z M 1281.5625 398.359375 C 1275.609375 396.339844 1270.164062 397.828125 1264.285156 399.105469 C 1260.3125 399.972656 1253.777344 402.808594 1249.828125 401.621094 C 1245.753906 400.394531 1242.890625 397.96875 1238.394531 397.585938 C 1234.035156 397.214844 1229.527344 397.914062 1225.183594 398.238281 C 1220.488281 398.59375 1215.515625 398.574219 1210.917969 399.679688 C 1204.085938 401.320312 1185.179688 420.582031 1197.078125 426.546875 C 1211.226562 433.625 1227.355469 436.640625 1243.085938 435.152344 C 1252.601562 434.25 1261.886719 431.75 1271.121094 429.261719 C 1275.707031 428.023438 1280.371094 426.753906 1284.378906 424.199219 C 1288.382812 421.648438 1291.695312 417.566406 1292.128906 412.839844 C 1292.714844 406.421875 1287.664062 400.433594 1281.5625 398.359375 Z M 1364.613281 294.582031 C 1364.730469 291.371094 1364.230469 288.347656 1363.253906 285.523438 C 1374.851562 281.035156 1385.40625 274.300781 1393.84375 265.886719 C 1416.5 287.445312 1457.765625 290.3125 1483.769531 271.566406 C 1501.996094 258.441406 1516.945312 225.964844 1503.1875 206.070312 C 1498.890625 199.863281 1492.078125 195.878906 1484.230469 192.917969 C 1469.378906 187.3125 1450.828125 185.375 1438.660156 178.976562 C 1432.070312 175.507812 1426.621094 170.515625 1420.371094 166.59375 C 1409.191406 159.589844 1396.121094 154.660156 1382.796875 152.199219 C 1357.183594 147.46875 1338.378906 155.160156 1314.046875 159.519531 C 1297.375 162.503906 1278.183594 157.851562 1262.539062 155.421875 C 1239.277344 151.8125 1214.425781 159.21875 1197.664062 174.105469 C 1181.839844 188.164062 1173.164062 208.941406 1176.914062 228.933594 C 1180.195312 246.421875 1192.8125 261.199219 1211.695312 266.292969 C 1208.339844 269.476562 1205.570312 273.21875 1203.589844 277.386719 C 1186.640625 267.570312 1164.800781 270.828125 1150.8125 285.433594 C 1146.105469 286.675781 1141.570312 288.4375 1137.375 290.933594 C 1127.300781 296.917969 1119.503906 307.777344 1119.832031 319.492188 C 1120.160156 331.207031 1130.472656 342.527344 1142.15625 341.605469 C 1140.890625 341.707031 1150.929688 354.644531 1152.285156 355.621094 C 1158.632812 360.207031 1164.570312 360.378906 1171.972656 360.785156 C 1188.6875 361.703125 1204.125 359.144531 1219.429688 351.898438 C 1229.699219 361.273438 1244.324219 363.078125 1258.046875 361.957031 C 1278.738281 360.253906 1299.347656 355.035156 1319.714844 351.21875 C 1338.058594 347.777344 1361.558594 346.382812 1373.007812 329.3125 C 1381.042969 317.328125 1378.042969 299.1875 1364.613281 294.582031 Z M 1364.613281 294.582031 " fill-opacity="1" fill-rule="nonzero"/></g><g clip-path="url(#9aeba9ace1)"><path fill="#bd744d" d="M 1442.964844 363.523438 C 1442.316406 363.9375 1441.667969 364.378906 1441.023438 364.753906 C 1437.398438 366.878906 1434.542969 367.523438 1430.710938 368.785156 C 1426.910156 370.046875 1422.445312 376.3125 1418.53125 372.96875 C 1415.695312 370.542969 1417.113281 365.285156 1414.660156 362.511719 C 1412.253906 359.796875 1406.207031 358.878906 1405.851562 363.816406 C 1405.773438 364.890625 1406.132812 365.949219 1406.488281 366.96875 C 1409.285156 375.027344 1412.621094 381.957031 1408.6875 390.28125 C 1405.644531 396.714844 1398.59375 398.503906 1393.410156 402.609375 C 1385.230469 408.265625 1377.957031 416.089844 1369.074219 420.453125 C 1359.980469 424.917969 1351.5 430.660156 1342.488281 435.417969 C 1337.996094 437.785156 1332.527344 440.035156 1328.066406 437.617188 C 1321.273438 433.9375 1323.140625 427.121094 1323.070312 421.023438 C 1322.960938 411.492188 1320.8125 401.691406 1320.074219 392.160156 C 1320.960938 388.105469 1321.882812 384.058594 1322.945312 380.039062 C 1325.050781 372.085938 1327.546875 364.054688 1329.496094 356.210938 C 1331.289062 349.003906 1334.71875 345.175781 1338.976562 339.03125 C 1344.96875 330.386719 1343.011719 320.660156 1345.878906 311.335938 C 1349.277344 300.265625 1353.382812 289.417969 1356.753906 278.332031 C 1357.824219 274.816406 1358.386719 270.449219 1360.382812 267.316406 C 1362.875 263.398438 1368.152344 260.785156 1372.03125 258.5 C 1379.867188 253.878906 1388.121094 249.960938 1396.832031 247.3125 C 1399.878906 246.382812 1401.1875 240.109375 1397 241.242188 C 1387.269531 243.882812 1376.492188 247.21875 1367.164062 252.492188 C 1366.203125 247.832031 1365.078125 243.265625 1365.089844 238.402344 C 1365.097656 234.027344 1359.160156 236.855469 1359.164062 240.167969 C 1359.171875 245.394531 1359.613281 251.054688 1361.976562 255.757812 C 1358.398438 258.253906 1355.140625 261.117188 1352.394531 264.441406 C 1348.90625 268.660156 1346.546875 273.75 1344.488281 278.949219 C 1338.492188 288.421875 1335.597656 299.796875 1330.898438 309.886719 C 1325.5 321.480469 1318.84375 332.886719 1309.542969 341.796875 C 1306.152344 339.9375 1302.367188 338.570312 1299.125 337.015625 C 1289.535156 332.410156 1281.421875 325.449219 1272.140625 320.449219 C 1265.058594 316.636719 1260.441406 314.675781 1258.65625 305.898438 C 1258.226562 303.785156 1254.792969 284.023438 1250.902344 285.296875 C 1243.808594 287.640625 1244.035156 303.464844 1245.878906 311.6875 C 1242.464844 310.785156 1238.988281 310.113281 1235.269531 309.34375 C 1228.582031 307.960938 1221.351562 305.8125 1216.632812 300.632812 C 1214.28125 298.054688 1209.140625 303.871094 1211.203125 306.433594 C 1219.246094 316.421875 1231.34375 319.6875 1242.328125 325.554688 C 1248.820312 329.023438 1255.078125 332.929688 1262.179688 335.054688 C 1265.238281 335.964844 1267.890625 336.933594 1270.601562 338.335938 C 1270.996094 338.605469 1271.390625 338.875 1271.78125 339.144531 C 1281.402344 345.777344 1290.605469 353.089844 1298.234375 361.996094 C 1306.085938 371.15625 1298.941406 382.855469 1299.96875 393.132812 C 1300.683594 400.246094 1302.28125 413.433594 1298.644531 419.996094 C 1290.078125 435.4375 1273.3125 412.5 1263.636719 412.527344 C 1261.15625 412.535156 1258.585938 414.210938 1258.175781 416.65625 C 1257.4375 421.078125 1271.667969 429.445312 1274.664062 432.648438 C 1297.140625 456.703125 1312.734375 510.691406 1309.246094 542.832031 C 1307.917969 555.042969 1303.492188 566.671875 1299.101562 578.144531 C 1287.117188 609.480469 1275.128906 640.808594 1263.140625 672.144531 C 1276.152344 674.601562 1288.589844 680.195312 1301.179688 682.1875 C 1306.347656 683.003906 1344.296875 673.59375 1344.160156 673.421875 C 1332.574219 658.644531 1332.191406 637.890625 1335.921875 619.488281 C 1339.652344 601.085938 1346.933594 583.410156 1348.945312 564.738281 C 1351.640625 539.734375 1342.011719 515.675781 1342.8125 490.777344 C 1343.214844 478.132812 1347.222656 467.683594 1352.644531 456.5 C 1354.15625 453.378906 1355.171875 446.691406 1358.875 445.445312 C 1361.097656 444.699219 1363.417969 446.703125 1365.585938 446.839844 C 1368.390625 447.015625 1370.671875 445.691406 1373.394531 445.378906 C 1378.347656 444.8125 1383.078125 448 1387.894531 447.671875 C 1393.039062 447.316406 1398.828125 443.515625 1402.496094 440.148438 C 1403.515625 439.210938 1404.5 438.167969 1404.976562 436.871094 C 1405.453125 435.574219 1405.3125 433.964844 1404.3125 433.011719 C 1402.851562 431.617188 1400.480469 432.199219 1398.574219 432.867188 C 1389.703125 435.976562 1385.734375 436.871094 1377.117188 432.980469 C 1385.5 423.914062 1396.484375 417.039062 1405.144531 408.050781 C 1418.738281 393.941406 1433.671875 382.785156 1448.851562 370.589844 C 1448.851562 367.960938 1452.957031 366.5625 1449.511719 363.328125 C 1447.195312 361.148438 1445.058594 362.195312 1442.964844 363.523438 Z M 1442.964844 363.523438 " fill-opacity="1" fill-rule="nonzero"/></g><path fill="#c8dda8" d="M 1569.832031 850.511719 C 1572.597656 842.988281 1572.675781 834.734375 1567.441406 828.074219 C 1566.773438 827.21875 1519.792969 812.507812 1525.253906 810.816406 C 1547.835938 803.097656 1543.40625 784.773438 1522.742188 778.570312 C 1507.550781 774.007812 1491.421875 783.574219 1477.394531 787.152344 C 1479.484375 779.09375 1480.914062 768.449219 1477.734375 760.441406 C 1474.285156 751.765625 1462.582031 745.828125 1455.140625 751.527344 C 1450.300781 755.226562 1448.921875 762.335938 1443.777344 765.609375 C 1438.894531 768.710938 1432.507812 767.257812 1426.925781 765.699219 C 1418.703125 763.40625 1410.480469 761.113281 1402.253906 758.816406 C 1407.40625 753.628906 1412.34375 748.226562 1417.046875 742.632812 C 1418.445312 740.96875 1405.179688 736.792969 1404.671875 736.007812 C 1398.40625 726.359375 1408.484375 729.910156 1410.015625 722.996094 C 1412.152344 713.371094 1427.644531 700.078125 1421.890625 689.410156 C 1413.960938 674.703125 1376.554688 681.601562 1364.859375 686.378906 C 1366.867188 667.988281 1355.574219 648.933594 1338.398438 641.738281 C 1334.6875 640.1875 1330.574219 639.136719 1326.640625 640 C 1322.5625 640.898438 1319.199219 643.726562 1315.304688 645.21875 C 1311.40625 646.714844 1305.984375 646.222656 1304.351562 642.40625 C 1304.351562 630.871094 1286.496094 608.167969 1275.394531 608.398438 C 1278.535156 590.785156 1281.710938 577.691406 1274.605469 560.578125 C 1266.484375 541.011719 1241.097656 530.398438 1225.433594 551.164062 C 1219.25 539.890625 1212.519531 528.046875 1201.277344 521.699219 C 1190.03125 515.351562 1172.949219 517.398438 1167.648438 529.109375 C 1166.878906 530.8125 1166.335938 532.710938 1164.964844 533.984375 C 1157.980469 540.480469 1149.917969 525.230469 1142.878906 528.285156 C 1131.570312 533.191406 1143.5 548.292969 1134.113281 555.460938 C 1127.601562 560.433594 1115.882812 551.75 1108.617188 551.875 C 1097.453125 552.070312 1075.792969 560.535156 1068.859375 569.632812 C 1060.070312 581.15625 1070.363281 602.347656 1057.976562 609.953125 C 1051.449219 613.957031 1041.621094 611.261719 1036.464844 616.902344 C 1030.199219 623.753906 1037.214844 634.152344 1038.78125 643.273438 C 1045.695312 683.582031 961.910156 666.902344 960.050781 709.210938 C 959.570312 720.15625 966.769531 730.75 964.664062 741.503906 C 963.21875 748.890625 957.050781 755.144531 949.640625 756.738281 C 942.226562 758.332031 934 755.171875 929.601562 749.042969 C 924.320312 755.171875 919.035156 761.296875 913.75 767.425781 C 909.480469 761.878906 907.113281 755.160156 903.839844 748.980469 C 896.078125 734.335938 883.566406 731.792969 868.257812 736.199219 C 844.054688 743.171875 861.535156 746.753906 848.882812 761.554688 C 844.855469 766.265625 836.816406 763.996094 832.414062 759.632812 C 828.015625 755.265625 825.28125 749.296875 820.25 745.664062 C 812.15625 739.824219 799.144531 742.769531 794.410156 751.515625 C 792.539062 754.972656 792.875 763 792.378906 769.511719 C 792.054688 773.785156 791.367188 777.40625 789.464844 778.652344 C 784.835938 781.675781 778.402344 774.109375 775.648438 775.785156 C 758.058594 786.503906 728.300781 787.566406 715.402344 805.316406 C 710.382812 812.222656 710.367188 823.457031 717.636719 827.984375 C 702.644531 818.648438 665.507812 834.449219 666.410156 850.511719 Z M 1569.832031 850.511719 " fill-opacity="1" fill-rule="nonzero"/></svg>