<svg xmlns="http://www.w3.org/2000/svg" xmlns:xlink="http://www.w3.org/1999/xlink" width="1920" zoomAndPan="magnify"
     viewBox="0 0 1440 809.999993" height="1080" preserveAspectRatio="xMidYMid meet" version="1.0">
    <defs>
        <clipPath id="730b4115d3">
            <path d="M 856 69 L 1229 69 L 1229 217.585938 L 856 217.585938 Z M 856 69 " clip-rule="nonzero"/>
        </clipPath>
        <clipPath id="7049bc2496">
            <path d="M 856 124 L 1217 124 L 1217 217.585938 L 856 217.585938 Z M 856 124 " clip-rule="nonzero"/>
        </clipPath>
        <clipPath id="b697dc2b17">
            <path d="M 51 268 L 317 268 L 317 373.644531 L 51 373.644531 Z M 51 268 " clip-rule="nonzero"/>
        </clipPath>
        <clipPath id="047e4f1aa0">
            <path d="M 51 307 L 309 307 L 309 373.644531 L 51 373.644531 Z M 51 307 " clip-rule="nonzero"/>
        </clipPath>
        <clipPath id="eacd375e77">
            <path d="M 1031.285156 285 L 1421 285 L 1421 571 L 1031.285156 571 Z M 1031.285156 285 "
                  clip-rule="nonzero"/>
        </clipPath>
    </defs>
    <g clip-path="url(#730b4115d3)">
        <path fill="#fffbea"
              d="M 1225.648438 190.328125 C 1223.25 187.644531 1219.464844 186.25 1215.890625 186.75 C 1215.714844 186.777344 1215.53125 186.804688 1215.351562 186.84375 C 1215.132812 183.121094 1213.664062 179.5 1211.078125 176.695312 C 1208.167969 173.542969 1204.367188 172.058594 1200.378906 171.90625 C 1201.265625 168.421875 1204.007812 165.449219 1202.648438 161.375 C 1200.800781 155.828125 1195.207031 151.75 1189.355469 151.683594 C 1187.507812 151.660156 1185.644531 151.996094 1183.835938 151.632812 C 1182.03125 151.265625 1182.980469 148.789062 1183.0625 146.949219 C 1183.347656 140.484375 1183.410156 133.308594 1179.140625 128.429688 C 1176.578125 125.496094 1172.78125 123.878906 1168.941406 123.234375 C 1165.609375 122.671875 1161.757812 122.414062 1158.417969 123.253906 C 1157.5625 123.457031 1156.742188 123.742188 1155.976562 124.113281 C 1155.996094 122.964844 1155.957031 121.835938 1155.855469 120.714844 C 1153.769531 96.917969 1125.300781 78.628906 1102.292969 84.761719 C 1096.875 86.203125 1081.773438 93.300781 1084.246094 101.617188 C 1080.453125 88.867188 1070.917969 77.769531 1059.214844 71.570312 C 1050.289062 66.84375 1035.476562 70.136719 1027.171875 74.84375 C 1010.632812 84.222656 1001.300781 103.636719 1001.078125 122.617188 C 1001.078125 119.214844 986.757812 116.765625 984.300781 116.460938 C 975.324219 115.328125 968.046875 122.699219 962.726562 129.554688 C 956.59375 137.46875 958.394531 146.027344 955.246094 154.785156 C 955.617188 152.800781 942.316406 155.050781 941.011719 155.9375 C 936.617188 158.933594 934.847656 164.765625 933.503906 169.628906 C 931.023438 164.957031 923.804688 163.960938 919.949219 167.425781 C 919.65625 167.679688 919.382812 167.964844 919.136719 168.277344 C 917.964844 169.75 917.300781 171.558594 916.242188 173.121094 C 915.277344 174.539062 914.039062 175.675781 912.652344 176.636719 C 912.613281 176.59375 912.582031 176.546875 912.542969 176.503906 C 907.53125 170.878906 898.246094 171.867188 891.648438 175.515625 C 888.125 177.464844 884.84375 180.496094 882.914062 183.988281 C 881.324219 183.921875 879.726562 184.15625 878.261719 184.75 C 872.644531 187.023438 869.339844 192.902344 868.9375 198.789062 C 868.910156 199.203125 868.902344 199.617188 868.902344 200.027344 C 866.375 203.117188 865.242188 207.378906 866.796875 211.09375 C 865.703125 210.160156 864.277344 209.683594 862.839844 209.65625 C 861.011719 209.613281 859.160156 210.296875 857.921875 211.652344 C 856.496094 213.230469 856.058594 215.546875 856.578125 217.601562 L 1215.992188 217.601562 C 1216.375 216.429688 1216.417969 215.152344 1216.3125 213.910156 C 1216.101562 211.363281 1215.242188 208.914062 1213.914062 206.734375 L 1227.886719 206.734375 C 1229.316406 200.976562 1229.492188 194.632812 1225.648438 190.328125 Z M 1225.648438 190.328125 "
              fill-opacity="1" fill-rule="nonzero"/>
    </g>
    <path fill="#ffffff"
          d="M 1227.886719 206.734375 L 870.746094 206.734375 C 869.605469 204.953125 868.992188 202.792969 868.910156 200.664062 C 868.886719 200.042969 868.894531 199.414062 868.9375 198.789062 C 869.339844 192.902344 872.644531 187.023438 878.261719 184.75 C 880.980469 183.644531 884.164062 183.746094 886.894531 184.8125 C 889.929688 185.984375 892.40625 188.34375 893.085938 191.53125 C 893.761719 186.460938 898.71875 183.167969 903.414062 181.128906 C 908.113281 179.089844 913.367188 177.351562 916.242188 173.121094 C 917.300781 171.558594 917.964844 169.75 919.136719 168.277344 C 919.382812 167.964844 919.65625 167.679688 919.949219 167.425781 C 923.804688 163.960938 931.023438 164.957031 933.503906 169.628906 C 934.847656 164.765625 936.617188 158.933594 941.011719 155.9375 C 942.316406 155.050781 955.617188 152.800781 955.246094 154.785156 C 958.394531 146.027344 956.59375 137.46875 962.726562 129.554688 C 968.046875 122.699219 975.324219 115.328125 984.300781 116.460938 C 986.757812 116.765625 1001.078125 119.214844 1001.078125 122.617188 C 1001.300781 103.636719 1010.632812 84.222656 1027.171875 74.84375 C 1035.476562 70.136719 1050.289062 66.84375 1059.214844 71.570312 C 1070.917969 77.769531 1080.453125 88.867188 1084.246094 101.617188 C 1081.773438 93.300781 1096.875 86.203125 1102.292969 84.761719 C 1125.300781 78.628906 1153.769531 96.917969 1155.855469 120.714844 C 1155.957031 121.835938 1155.996094 122.964844 1155.976562 124.113281 C 1156.742188 123.742188 1157.5625 123.457031 1158.414062 123.253906 C 1161.757812 122.414062 1165.609375 122.671875 1168.941406 123.230469 C 1172.78125 123.878906 1176.578125 125.496094 1179.140625 128.429688 C 1183.410156 133.308594 1183.347656 140.484375 1183.0625 146.949219 C 1182.980469 148.789062 1182.03125 151.265625 1183.835938 151.636719 C 1185.644531 151.996094 1187.507812 151.664062 1189.355469 151.683594 C 1195.207031 151.75 1200.800781 155.828125 1202.648438 161.375 C 1204.007812 165.449219 1201.265625 168.421875 1200.378906 171.90625 C 1204.367188 172.058594 1208.167969 173.542969 1211.078125 176.695312 C 1213.664062 179.5 1215.132812 183.121094 1215.351562 186.84375 C 1215.53125 186.804688 1215.714844 186.777344 1215.890625 186.75 C 1219.464844 186.25 1223.25 187.644531 1225.648438 190.332031 C 1229.492188 194.632812 1229.316406 200.976562 1227.886719 206.734375 Z M 1227.886719 206.734375 "
          fill-opacity="1" fill-rule="nonzero"/>
    <g clip-path="url(#7049bc2496)">
        <path fill="#fffbea"
              d="M 1215.992188 217.601562 L 856.578125 217.601562 C 856.058594 215.550781 856.496094 213.230469 857.921875 211.652344 C 859.160156 210.296875 861.011719 209.613281 862.839844 209.65625 C 864.277344 209.683594 865.703125 210.160156 866.796875 211.09375 C 863.839844 204.019531 870.601562 194.96875 878.230469 195.789062 C 879.09375 195.878906 880.042969 196.054688 880.800781 195.679688 C 880.867188 195.644531 880.929688 195.609375 880.992188 195.570312 C 881.777344 195.058594 882.554688 193.496094 881.613281 193.496094 C 879.421875 186.394531 885.136719 179.117188 891.648438 175.515625 C 898.246094 171.867188 907.53125 170.878906 912.542969 176.503906 C 913.042969 177.070312 913.480469 177.664062 913.855469 178.292969 C 918.003906 185.210938 915.070312 195.582031 920.066406 202.261719 C 924.546875 195.050781 931.953125 186.757812 940.851562 193.925781 C 943.351562 195.9375 943.378906 199.566406 945.449219 201.476562 C 949.65625 205.351562 951.800781 198.6875 956.125 196.675781 C 960.449219 194.664062 965.164062 196.339844 969.386719 197.976562 C 970.367188 194.015625 967.992188 190.058594 967.398438 186.015625 C 966.3125 178.585938 971.808594 171.199219 978.902344 168.695312 C 983.878906 166.9375 989.121094 167.371094 994.101562 168.867188 C 999.8125 170.578125 1001.191406 172.984375 1002.769531 165.886719 C 1004.625 157.523438 1010.234375 150.550781 1015.910156 144.125 C 1019.730469 139.808594 1023.847656 135.457031 1029.226562 133.347656 C 1032.222656 132.175781 1035.476562 131.765625 1038.699219 131.753906 C 1046.40625 131.734375 1054.328125 134.128906 1059.898438 139.445312 C 1065.519531 144.828125 1067.070312 151.875 1066.3125 159.335938 C 1071.742188 152.632812 1075.777344 149.507812 1084.695312 150.503906 C 1085.855469 150.632812 1094.777344 155.496094 1094.605469 155.871094 C 1100.015625 143.484375 1104.921875 131.820312 1118.507812 126.734375 C 1128.863281 122.859375 1141.0625 124.101562 1149.601562 131.4375 C 1149.65625 131.488281 1149.710938 131.527344 1149.757812 131.582031 C 1150.667969 132.375 1151.527344 133.21875 1152.320312 134.121094 C 1158.871094 141.488281 1161.625 152.113281 1159.527344 161.785156 C 1158.496094 166.527344 1156.433594 171.621094 1158.539062 176 C 1162.582031 170.980469 1172.390625 173.785156 1173.167969 180.175781 C 1173.484375 182.765625 1172.671875 185.789062 1174.417969 187.734375 C 1177.992188 183.933594 1184.179688 182.910156 1188.792969 185.359375 C 1193.335938 187.78125 1193.664062 191.429688 1195.117188 195.726562 C 1195.949219 198.195312 1194.570312 198.320312 1195.820312 198.953125 C 1196.074219 199.074219 1196.429688 199.226562 1196.929688 199.417969 C 1197.964844 199.804688 1201.230469 198.347656 1202.863281 198.6875 C 1209.96875 200.1875 1215.714844 206.6875 1216.3125 213.910156 C 1216.417969 215.152344 1216.375 216.429688 1215.992188 217.601562 Z M 1215.992188 217.601562 "
              fill-opacity="1" fill-rule="nonzero"/>
    </g>
    <g clip-path="url(#b697dc2b17)">
        <path fill="#fffbea"
              d="M 314.714844 354.253906 C 313.007812 352.34375 310.3125 351.351562 307.765625 351.707031 C 307.640625 351.726562 307.507812 351.746094 307.378906 351.773438 C 307.226562 349.125 306.179688 346.550781 304.332031 344.554688 C 302.257812 342.3125 299.554688 341.253906 296.710938 341.148438 C 297.34375 338.667969 299.292969 336.550781 298.324219 333.65625 C 297.011719 329.710938 293.023438 326.808594 288.851562 326.757812 C 287.539062 326.746094 286.210938 326.984375 284.917969 326.726562 C 283.632812 326.464844 284.3125 324.703125 284.371094 323.390625 C 284.574219 318.792969 284.617188 313.6875 281.574219 310.214844 C 279.75 308.128906 277.042969 306.980469 274.308594 306.519531 C 271.933594 306.121094 269.1875 305.9375 266.804688 306.535156 C 266.199219 306.679688 265.613281 306.882812 265.066406 307.144531 C 265.082031 306.328125 265.054688 305.523438 264.980469 304.726562 C 263.496094 287.796875 243.207031 274.785156 226.808594 279.148438 C 222.949219 280.171875 212.1875 285.226562 213.949219 291.140625 C 211.246094 282.070312 204.453125 274.175781 196.113281 269.765625 C 189.75 266.402344 179.195312 268.746094 173.277344 272.09375 C 161.492188 278.765625 154.839844 292.578125 154.679688 306.082031 C 154.679688 303.660156 144.476562 301.917969 142.726562 301.699219 C 136.328125 300.894531 131.144531 306.140625 127.351562 311.015625 C 122.980469 316.644531 124.265625 322.738281 122.023438 328.96875 C 122.285156 327.554688 112.808594 329.15625 111.875 329.789062 C 108.746094 331.917969 107.484375 336.066406 106.527344 339.527344 C 104.757812 336.203125 99.613281 335.496094 96.867188 337.960938 C 96.660156 338.140625 96.464844 338.34375 96.289062 338.566406 C 95.453125 339.613281 94.980469 340.898438 94.226562 342.011719 C 93.539062 343.019531 92.65625 343.828125 91.667969 344.515625 C 91.640625 344.484375 91.617188 344.449219 91.589844 344.417969 C 88.015625 340.417969 81.402344 341.121094 76.699219 343.714844 C 74.1875 345.101562 71.851562 347.257812 70.476562 349.742188 C 69.34375 349.695312 68.203125 349.863281 67.160156 350.285156 C 63.15625 351.902344 60.800781 356.085938 60.515625 360.273438 C 60.496094 360.566406 60.488281 360.859375 60.492188 361.15625 C 58.6875 363.351562 57.882812 366.382812 58.988281 369.027344 C 58.210938 368.363281 57.191406 368.023438 56.171875 368.003906 C 54.867188 367.976562 53.546875 368.460938 52.664062 369.425781 C 51.648438 370.546875 51.335938 372.195312 51.707031 373.65625 L 307.835938 373.65625 C 308.109375 372.824219 308.140625 371.914062 308.066406 371.03125 C 307.914062 369.21875 307.300781 367.476562 306.355469 365.925781 L 316.3125 365.925781 C 317.332031 361.832031 317.457031 357.316406 314.714844 354.253906 Z M 314.714844 354.253906 "
              fill-opacity="1" fill-rule="nonzero"/>
    </g>
    <path fill="#ffffff"
          d="M 316.3125 365.925781 L 61.804688 365.925781 C 60.992188 364.660156 60.554688 363.121094 60.496094 361.605469 C 60.480469 361.164062 60.484375 360.71875 60.515625 360.273438 C 60.800781 356.085938 63.15625 351.902344 67.160156 350.285156 C 69.097656 349.5 71.363281 349.570312 73.3125 350.328125 C 75.472656 351.164062 77.242188 352.84375 77.722656 355.109375 C 78.203125 351.503906 81.738281 349.160156 85.082031 347.707031 C 88.433594 346.257812 92.175781 345.019531 94.226562 342.011719 C 94.980469 340.898438 95.453125 339.613281 96.289062 338.566406 C 96.464844 338.34375 96.660156 338.140625 96.867188 337.960938 C 99.613281 335.496094 104.757812 336.203125 106.527344 339.527344 C 107.484375 336.066406 108.746094 331.917969 111.875 329.789062 C 112.804688 329.15625 122.285156 327.554688 122.023438 328.96875 C 124.265625 322.738281 122.980469 316.644531 127.351562 311.015625 C 131.144531 306.140625 136.328125 300.894531 142.726562 301.699219 C 144.476562 301.917969 154.679688 303.660156 154.679688 306.082031 C 154.839844 292.578125 161.492188 278.765625 173.277344 272.09375 C 179.195312 268.746094 189.75 266.402344 196.113281 269.765625 C 204.453125 274.175781 211.246094 282.070312 213.949219 291.140625 C 212.1875 285.226562 222.949219 280.171875 226.808594 279.148438 C 243.207031 274.785156 263.496094 287.796875 264.980469 304.726562 C 265.054688 305.523438 265.082031 306.328125 265.066406 307.144531 C 265.613281 306.882812 266.199219 306.679688 266.804688 306.535156 C 269.1875 305.9375 271.933594 306.121094 274.308594 306.519531 C 277.042969 306.980469 279.75 308.128906 281.574219 310.214844 C 284.617188 313.6875 284.574219 318.792969 284.371094 323.390625 C 284.3125 324.703125 283.632812 326.464844 284.917969 326.726562 C 286.210938 326.984375 287.539062 326.746094 288.851562 326.757812 C 293.023438 326.808594 297.011719 329.710938 298.324219 333.65625 C 299.292969 336.550781 297.34375 338.667969 296.710938 341.148438 C 299.554688 341.253906 302.257812 342.3125 304.332031 344.554688 C 306.179688 346.550781 307.226562 349.125 307.378906 351.773438 C 307.507812 351.746094 307.636719 351.726562 307.765625 351.707031 C 310.3125 351.351562 313.007812 352.34375 314.714844 354.253906 C 317.457031 357.316406 317.332031 361.832031 316.3125 365.925781 Z M 316.3125 365.925781 "
          fill-opacity="1" fill-rule="nonzero"/>
    <g clip-path="url(#047e4f1aa0)">
        <path fill="#fffbea"
              d="M 307.835938 373.65625 L 51.707031 373.65625 C 51.335938 372.195312 51.648438 370.546875 52.664062 369.425781 C 53.546875 368.460938 54.867188 367.976562 56.171875 368.003906 C 57.191406 368.023438 58.210938 368.363281 58.988281 369.027344 C 56.882812 363.996094 61.699219 357.554688 67.136719 358.136719 C 67.75 358.203125 68.429688 358.328125 68.96875 358.0625 C 69.015625 358.035156 69.0625 358.011719 69.105469 357.984375 C 69.664062 357.617188 70.21875 356.507812 69.546875 356.507812 C 67.984375 351.457031 72.058594 346.277344 76.699219 343.714844 C 81.402344 341.121094 88.015625 340.417969 91.589844 344.417969 C 91.945312 344.824219 92.257812 345.246094 92.523438 345.691406 C 95.480469 350.613281 93.390625 357.992188 96.949219 362.742188 C 100.144531 357.613281 105.421875 351.714844 111.761719 356.8125 C 113.546875 358.246094 113.566406 360.828125 115.039062 362.183594 C 118.039062 364.941406 119.566406 360.199219 122.648438 358.769531 C 125.730469 357.335938 129.089844 358.53125 132.097656 359.695312 C 132.796875 356.875 131.105469 354.0625 130.679688 351.183594 C 129.90625 345.898438 133.824219 340.644531 138.878906 338.863281 C 142.425781 337.613281 146.160156 337.921875 149.710938 338.984375 C 153.777344 340.203125 154.761719 341.914062 155.886719 336.863281 C 157.210938 330.914062 161.207031 325.953125 165.253906 321.382812 C 167.972656 318.3125 170.910156 315.214844 174.742188 313.714844 C 176.878906 312.882812 179.195312 312.589844 181.492188 312.582031 C 186.984375 312.566406 192.628906 314.269531 196.597656 318.054688 C 200.605469 321.882812 201.710938 326.898438 201.167969 332.207031 C 205.039062 327.433594 207.917969 325.210938 214.269531 325.921875 C 215.097656 326.011719 221.453125 329.472656 221.332031 329.738281 C 225.1875 320.925781 228.683594 312.628906 238.367188 309.007812 C 245.746094 306.253906 254.441406 307.136719 260.523438 312.359375 C 260.5625 312.390625 260.601562 312.421875 260.636719 312.460938 C 261.285156 313.023438 261.898438 313.625 262.460938 314.265625 C 267.128906 319.503906 269.09375 327.066406 267.597656 333.949219 C 266.863281 337.320312 265.394531 340.945312 266.890625 344.0625 C 269.773438 340.488281 276.765625 342.484375 277.320312 347.03125 C 277.542969 348.875 276.964844 351.023438 278.210938 352.40625 C 280.757812 349.703125 285.167969 348.976562 288.453125 350.71875 C 291.691406 352.441406 291.921875 355.039062 292.960938 358.09375 C 293.554688 359.851562 292.570312 359.9375 293.460938 360.390625 C 293.640625 360.476562 293.894531 360.585938 294.25 360.71875 C 294.992188 360.996094 297.316406 359.957031 298.480469 360.199219 C 303.542969 361.269531 307.636719 365.894531 308.066406 371.03125 C 308.140625 371.914062 308.109375 372.824219 307.835938 373.65625 Z M 307.835938 373.65625 "
              fill-opacity="1" fill-rule="nonzero"/>
    </g>
    <g clip-path="url(#eacd375e77)">
        <path fill="#9ba66b"
              d="M 1397.144531 495.15625 C 1399.691406 498.46875 1399.6875 503.003906 1398.300781 506.734375 C 1394.617188 516.570312 1383.710938 518.460938 1373.984375 518.6875 C 1369.9375 522.984375 1363.1875 524.898438 1357.371094 525.789062 C 1350.457031 526.839844 1344.347656 525.394531 1338.109375 522.597656 C 1331.332031 519.546875 1325.683594 517.097656 1318 517.578125 C 1310.972656 518.015625 1304.078125 519.808594 1297.007812 519.738281 C 1286.4375 519.632812 1275.804688 514.378906 1273.269531 503.882812 C 1270.832031 493.800781 1278.863281 485.894531 1288.378906 483.0625 C 1294.433594 481.261719 1300.75 481.609375 1306.996094 481.183594 C 1313.308594 480.753906 1318.328125 478.863281 1323.191406 475.023438 C 1332.320312 467.828125 1339.371094 459.414062 1351.085938 455.855469 C 1361.351562 452.734375 1374.195312 453.09375 1383.386719 458.941406 C 1387.832031 461.765625 1391.757812 466.007812 1392.730469 471.160156 C 1393.675781 476.164062 1389.917969 480.285156 1390.523438 485.082031 C 1391.066406 489.382812 1394.65625 491.921875 1397.144531 495.15625 Z M 1193.726562 533.359375 C 1187.773438 531.339844 1182.328125 532.828125 1176.449219 534.105469 C 1172.476562 534.972656 1165.9375 537.808594 1161.988281 536.621094 C 1157.917969 535.394531 1155.054688 532.96875 1150.558594 532.585938 C 1146.199219 532.214844 1141.691406 532.914062 1137.347656 533.238281 C 1132.652344 533.59375 1127.679688 533.574219 1123.082031 534.679688 C 1116.246094 536.320312 1097.34375 555.582031 1109.242188 561.546875 C 1123.390625 568.625 1139.519531 571.640625 1155.25 570.152344 C 1164.765625 569.25 1174.050781 566.75 1183.285156 564.261719 C 1187.871094 563.023438 1192.535156 561.753906 1196.539062 559.199219 C 1200.542969 556.648438 1203.859375 552.566406 1204.292969 547.839844 C 1204.878906 541.421875 1199.828125 535.433594 1193.726562 533.359375 Z M 1276.777344 429.582031 C 1276.890625 426.371094 1276.394531 423.347656 1275.417969 420.523438 C 1287.015625 416.035156 1297.570312 409.300781 1306.007812 400.886719 C 1328.664062 422.445312 1369.925781 425.3125 1395.933594 406.566406 C 1414.15625 393.441406 1429.109375 360.964844 1415.347656 341.070312 C 1411.054688 334.863281 1404.242188 330.878906 1396.394531 327.917969 C 1381.542969 322.3125 1362.992188 320.375 1350.824219 313.976562 C 1344.230469 310.507812 1338.785156 305.515625 1332.535156 301.59375 C 1321.355469 294.589844 1308.285156 289.660156 1294.960938 287.199219 C 1269.347656 282.46875 1250.542969 290.160156 1226.207031 294.519531 C 1209.535156 297.503906 1190.347656 292.851562 1174.703125 290.421875 C 1151.441406 286.8125 1126.585938 294.21875 1109.828125 309.105469 C 1094.003906 323.164062 1085.328125 343.941406 1089.078125 363.933594 C 1092.359375 381.421875 1104.976562 396.199219 1123.859375 401.292969 C 1120.503906 404.476562 1117.734375 408.21875 1115.753906 412.386719 C 1098.804688 402.570312 1076.964844 405.828125 1062.972656 420.433594 C 1058.269531 421.675781 1053.734375 423.4375 1049.539062 425.933594 C 1039.460938 431.917969 1031.667969 442.777344 1031.996094 454.492188 C 1032.324219 466.207031 1042.636719 477.527344 1054.320312 476.605469 C 1053.050781 476.707031 1063.09375 489.644531 1064.449219 490.621094 C 1070.796875 495.207031 1076.734375 495.378906 1084.136719 495.785156 C 1100.847656 496.703125 1116.289062 494.144531 1131.59375 486.898438 C 1141.863281 496.273438 1156.488281 498.078125 1170.210938 496.957031 C 1190.902344 495.253906 1211.507812 490.035156 1231.875 486.21875 C 1250.222656 482.777344 1273.722656 481.382812 1285.171875 464.3125 C 1293.207031 452.328125 1290.207031 434.1875 1276.777344 429.582031 Z M 1276.777344 429.582031 "
              fill-opacity="1" fill-rule="nonzero"/>
    </g>
    <path fill="#bd744d"
          d="M 1355.128906 498.523438 C 1354.480469 498.9375 1353.832031 499.378906 1353.1875 499.753906 C 1349.558594 501.878906 1346.707031 502.523438 1342.875 503.785156 C 1339.074219 505.046875 1334.609375 511.3125 1330.695312 507.96875 C 1327.859375 505.542969 1329.277344 500.285156 1326.824219 497.511719 C 1324.417969 494.796875 1318.367188 493.878906 1318.011719 498.816406 C 1317.9375 499.890625 1318.296875 500.949219 1318.648438 501.96875 C 1321.449219 510.027344 1324.785156 516.957031 1320.851562 525.28125 C 1317.808594 531.714844 1310.757812 533.503906 1305.570312 537.609375 C 1297.394531 543.265625 1290.121094 551.089844 1281.238281 555.453125 C 1272.140625 559.917969 1263.664062 565.660156 1254.648438 570.417969 C 1250.160156 572.785156 1244.691406 575.035156 1240.226562 572.617188 C 1233.4375 568.9375 1235.304688 562.121094 1235.234375 556.023438 C 1235.125 546.492188 1232.976562 536.691406 1232.238281 527.160156 C 1233.125 523.105469 1234.046875 519.058594 1235.109375 515.039062 C 1237.210938 507.085938 1239.710938 499.054688 1241.660156 491.210938 C 1243.453125 484.003906 1246.882812 480.175781 1251.140625 474.03125 C 1257.132812 465.386719 1255.175781 455.660156 1258.042969 446.335938 C 1261.441406 435.265625 1265.546875 424.417969 1268.917969 413.332031 C 1269.988281 409.816406 1270.550781 405.449219 1272.542969 402.316406 C 1275.039062 398.398438 1280.316406 395.785156 1284.191406 393.5 C 1292.03125 388.878906 1300.285156 384.960938 1308.992188 382.3125 C 1312.042969 381.382812 1313.351562 375.109375 1309.160156 376.242188 C 1299.433594 378.882812 1288.65625 382.21875 1279.328125 387.492188 C 1278.363281 382.832031 1277.242188 378.265625 1277.253906 373.402344 C 1277.261719 369.027344 1271.320312 371.855469 1271.328125 375.167969 C 1271.335938 380.394531 1271.777344 386.054688 1274.136719 390.757812 C 1270.5625 393.253906 1267.304688 396.117188 1264.558594 399.441406 C 1261.070312 403.660156 1258.710938 408.75 1256.652344 413.949219 C 1250.65625 423.421875 1247.761719 434.796875 1243.058594 444.886719 C 1237.660156 456.480469 1231.007812 467.886719 1221.707031 476.796875 C 1218.316406 474.9375 1214.53125 473.570312 1211.289062 472.015625 C 1201.699219 467.410156 1193.585938 460.449219 1184.304688 455.449219 C 1177.21875 451.636719 1172.605469 449.675781 1170.820312 440.898438 C 1170.390625 438.785156 1166.957031 419.023438 1163.0625 420.296875 C 1155.972656 422.640625 1156.199219 438.464844 1158.042969 446.6875 C 1154.625 445.785156 1151.152344 445.113281 1147.433594 444.34375 C 1140.742188 442.960938 1133.515625 440.8125 1128.796875 435.632812 C 1126.445312 433.054688 1121.304688 438.871094 1123.367188 441.433594 C 1131.410156 451.421875 1143.507812 454.6875 1154.492188 460.554688 C 1160.984375 464.023438 1167.242188 467.929688 1174.34375 470.054688 C 1177.402344 470.964844 1180.054688 471.933594 1182.765625 473.335938 C 1183.160156 473.605469 1183.554688 473.875 1183.945312 474.144531 C 1193.566406 480.777344 1202.769531 488.089844 1210.398438 496.996094 C 1218.25 506.15625 1211.101562 517.855469 1212.132812 528.132812 C 1212.847656 535.246094 1214.445312 548.433594 1210.808594 554.996094 C 1202.242188 570.4375 1185.476562 547.5 1175.800781 547.527344 C 1173.320312 547.535156 1170.746094 549.210938 1170.339844 551.65625 C 1169.601562 556.078125 1183.832031 564.445312 1186.828125 567.648438 C 1209.304688 591.703125 1224.898438 645.691406 1221.410156 677.832031 C 1220.082031 690.042969 1215.65625 701.671875 1211.265625 713.144531 C 1199.277344 744.480469 1187.292969 775.808594 1175.304688 807.144531 C 1188.3125 809.601562 1200.753906 815.195312 1213.339844 817.1875 C 1218.507812 818.003906 1256.460938 808.59375 1256.324219 808.421875 C 1244.738281 793.644531 1244.355469 772.890625 1248.085938 754.488281 C 1251.816406 736.085938 1259.097656 718.410156 1261.109375 699.738281 C 1263.804688 674.734375 1254.175781 650.675781 1254.972656 625.777344 C 1255.378906 613.132812 1259.386719 602.683594 1264.808594 591.5 C 1266.320312 588.378906 1267.335938 581.691406 1271.039062 580.445312 C 1273.261719 579.699219 1275.582031 581.703125 1277.75 581.839844 C 1280.550781 582.015625 1282.835938 580.691406 1285.558594 580.378906 C 1290.511719 579.8125 1295.242188 583 1300.058594 582.671875 C 1305.203125 582.316406 1310.988281 578.515625 1314.660156 575.148438 C 1315.679688 574.210938 1316.664062 573.167969 1317.140625 571.871094 C 1317.617188 570.574219 1317.476562 568.964844 1316.476562 568.011719 C 1315.015625 566.617188 1312.644531 567.199219 1310.738281 567.867188 C 1301.867188 570.976562 1297.898438 571.871094 1289.28125 567.980469 C 1297.664062 558.914062 1308.648438 552.039062 1317.308594 543.050781 C 1330.902344 528.941406 1345.835938 517.785156 1361.015625 505.589844 C 1361.015625 502.960938 1365.121094 501.5625 1361.675781 498.328125 C 1359.359375 496.148438 1357.222656 497.195312 1355.128906 498.523438 Z M 1355.128906 498.523438 "
          fill-opacity="1" fill-rule="nonzero"/>
    <path fill="#c8dda8"
          d="M 1493.355469 871.375 C 1496.121094 863.851562 1496.203125 855.597656 1490.964844 848.9375 C 1490.296875 848.082031 1443.316406 833.375 1448.777344 831.679688 C 1471.359375 823.964844 1466.929688 805.636719 1446.265625 799.433594 C 1431.074219 794.871094 1414.945312 804.4375 1400.921875 808.015625 C 1403.007812 799.957031 1404.4375 789.3125 1401.257812 781.304688 C 1397.808594 772.628906 1386.105469 766.695312 1378.664062 772.390625 C 1373.824219 776.09375 1372.445312 783.199219 1367.300781 786.472656 C 1362.417969 789.578125 1356.03125 788.121094 1350.453125 786.5625 C 1342.226562 784.269531 1334.003906 781.976562 1325.777344 779.679688 C 1330.929688 774.492188 1335.867188 769.089844 1340.570312 763.496094 C 1341.96875 761.832031 1328.703125 757.65625 1328.195312 756.871094 C 1321.929688 747.222656 1332.007812 750.773438 1333.539062 743.863281 C 1335.675781 734.234375 1351.167969 720.941406 1345.414062 710.273438 C 1337.484375 695.566406 1300.078125 702.464844 1288.382812 707.242188 C 1290.390625 688.851562 1279.097656 669.800781 1261.921875 662.605469 C 1258.210938 661.050781 1254.097656 660 1250.164062 660.867188 C 1246.085938 661.761719 1242.722656 664.589844 1238.828125 666.085938 C 1234.929688 667.578125 1229.507812 667.085938 1227.875 663.269531 C 1227.875 651.734375 1210.019531 629.03125 1198.917969 629.261719 C 1202.058594 611.648438 1205.234375 598.554688 1198.132812 581.441406 C 1190.007812 561.875 1164.621094 551.261719 1148.957031 572.027344 C 1142.773438 560.753906 1136.046875 548.910156 1124.800781 542.5625 C 1113.558594 536.214844 1096.472656 538.265625 1091.171875 549.972656 C 1090.402344 551.675781 1089.859375 553.574219 1088.488281 554.851562 C 1081.503906 561.34375 1073.441406 546.09375 1066.402344 549.148438 C 1055.09375 554.054688 1067.023438 569.15625 1057.636719 576.324219 C 1051.128906 581.296875 1039.40625 572.613281 1032.140625 572.738281 C 1020.976562 572.933594 999.316406 581.398438 992.382812 590.496094 C 983.59375 602.019531 993.886719 623.210938 981.5 630.816406 C 974.972656 634.820312 965.148438 632.125 959.988281 637.765625 C 953.722656 644.621094 960.738281 655.015625 962.304688 664.136719 C 969.21875 704.445312 885.433594 687.765625 883.574219 730.074219 C 883.09375 741.019531 890.292969 751.613281 888.1875 762.367188 C 886.746094 769.753906 880.574219 776.007812 873.164062 777.601562 C 865.75 779.199219 857.523438 776.035156 853.125 769.90625 C 847.84375 776.035156 842.558594 782.160156 837.273438 788.289062 C 833.003906 782.742188 830.636719 776.023438 827.363281 769.84375 C 819.605469 755.199219 807.089844 752.65625 791.78125 757.0625 C 767.578125 764.035156 785.058594 767.617188 772.40625 782.417969 C 768.378906 787.128906 760.339844 784.863281 755.941406 780.496094 C 751.539062 776.128906 748.804688 770.160156 743.773438 766.527344 C 735.679688 760.6875 722.667969 763.632812 717.933594 772.378906 C 716.0625 775.835938 716.398438 783.863281 715.902344 790.375 C 715.578125 794.648438 714.890625 798.269531 712.988281 799.515625 C 708.359375 802.539062 701.925781 794.972656 699.171875 796.648438 C 681.582031 807.367188 651.828125 808.429688 638.925781 826.179688 C 633.90625 833.085938 633.890625 844.320312 641.160156 848.851562 C 626.167969 839.511719 589.03125 855.3125 589.933594 871.375 Z M 1493.355469 871.375 "
          fill-opacity="1" fill-rule="nonzero"/>
    <path fill="#bd744d"
          d="M 625.046875 848.855469 L 297.53125 848.855469 C 293.257812 845.664062 289.292969 842.335938 285.839844 839.253906 C 274.675781 829.339844 263.339844 815.410156 263.648438 799.664062 C 263.824219 791.726562 267.035156 785.335938 272.019531 781.191406 C 272.90625 777.953125 275.476562 775.335938 280.015625 775.136719 C 290.222656 774.667969 299.636719 771.609375 306.964844 764.179688 C 312.8125 758.28125 316.3125 750.539062 322.269531 744.6875 C 331.058594 736.015625 345.011719 731.003906 358.210938 728.363281 C 362.664062 727.476562 367.027344 726.855469 371.078125 726.457031 C 388.441406 724.792969 403.390625 729.980469 415.878906 742.136719 C 427.617188 753.578125 436.164062 767.574219 454.679688 765.511719 C 473.746094 763.40625 491.53125 753.667969 510.488281 750.253906 C 528.558594 746.992188 547.359375 748.523438 563.726562 757.261719 C 596.636719 774.828125 611.671875 809.867188 624.273438 843.070312 C 625.046875 845.085938 625.269531 847.035156 625.046875 848.855469 Z M 625.046875 848.855469 "
          fill-opacity="1" fill-rule="nonzero"/>
    <path fill="#c8dda8"
          d="M 410.652344 823.304688 C 391.144531 830.933594 372.03125 839.472656 353.339844 848.855469 L 94.699219 848.855469 C 84.3125 845.925781 74.082031 842.421875 64.003906 838.363281 C 59.355469 836.5 60.285156 830.515625 64.160156 828.539062 C 90.644531 814.988281 118.394531 807.601562 147.625 807.582031 C 117.398438 765.421875 75.941406 731.398438 53.90625 683.671875 C 51.691406 678.835938 57.339844 674.046875 61.878906 675.953125 C 104.953125 694.074219 145.679688 716.941406 182.21875 745.972656 C 172.871094 697.335938 169.707031 647.832031 172.273438 598.289062 C 172.628906 591.613281 182.839844 590.878906 184.921875 596.847656 C 200.554688 641.734375 216.324219 686.554688 232.070312 731.402344 C 246.929688 691.257812 262.1875 651.292969 276.785156 611.0625 C 279.261719 604.230469 288.1875 608.113281 288.03125 614.234375 C 286.878906 659.210938 285.683594 704.1875 284.511719 749.164062 C 316.269531 730.582031 347.472656 711.0625 377.945312 690.417969 C 383.304688 686.777344 389.503906 692.191406 387.492188 698.046875 C 385.367188 704.257812 382.507812 709.957031 379.140625 715.324219 C 376.882812 719.691406 374.578125 724.039062 372.277344 728.363281 C 359.585938 752.207031 346.277344 775.605469 331.019531 797.914062 C 357.21875 800.285156 383.238281 804.035156 409.058594 809.269531 C 416.035156 810.6875 417.695312 820.535156 410.652344 823.304688 Z M 410.652344 823.304688 "
          fill-opacity="1" fill-rule="nonzero"/>
    <path fill="#9ba66b"
          d="M 288.164062 842.289062 C 282.339844 840.980469 276.492188 839.695312 270.648438 838.386719 C 269.894531 838.210938 269.050781 838.078125 268.1875 837.941406 C 270.402344 835.859375 272.507812 833.617188 274.675781 831.621094 C 279.378906 827.355469 284.367188 823.175781 289.242188 819.125 C 291.808594 816.996094 299.621094 814.070312 296.34375 809.371094 C 295.535156 808.21875 294.074219 807.753906 292.699219 807.457031 C 286.367188 806.105469 280.109375 806.5625 273.660156 806.503906 C 266.679688 806.441406 259.695312 806.148438 252.714844 806.523438 C 256.957031 793.390625 261.175781 780.277344 265.347656 767.132812 C 266.3125 764.097656 268.789062 757.691406 263.5625 758.089844 C 258.171875 758.5 252.253906 766.59375 248.824219 770.242188 C 241.503906 778.035156 235.027344 786.570312 228.441406 794.984375 C 224.859375 777.894531 221.382812 760.785156 218.605469 743.554688 C 217.441406 736.328125 212.070312 741.519531 211.152344 745.734375 C 208.277344 758.917969 204.359375 772.222656 202.59375 785.535156 C 202.171875 788.574219 201.707031 791.679688 201.265625 794.808594 C 194.230469 788.074219 186.894531 781.640625 179.050781 775.863281 C 175.207031 773.027344 171.238281 770.351562 167.148438 767.890625 C 165.023438 766.609375 157.933594 760.363281 156.070312 764.796875 C 155.609375 765.886719 155.816406 767.128906 156.050781 768.289062 C 158.535156 780.703125 163.546875 792.253906 168.886719 803.671875 C 172.429688 811.246094 175.964844 819.335938 180.308594 826.691406 C 167.785156 829.316406 155.160156 831.671875 142.535156 832.820312 C 139.414062 833.105469 138.59375 837.898438 141.648438 839.007812 C 150.996094 842.445312 160.40625 845.683594 169.84375 848.851562 L 293.21875 848.851562 C 293.257812 846.015625 291.507812 843.042969 288.164062 842.289062 Z M 288.164062 842.289062 "
          fill-opacity="1" fill-rule="nonzero"/>
</svg>