<svg xmlns="http://www.w3.org/2000/svg" xmlns:xlink="http://www.w3.org/1999/xlink" width="2000" zoomAndPan="magnify" viewBox="0 0 1500 899.99999" height="1200" preserveAspectRatio="xMidYMid meet" version="1.0"><defs><clipPath id="77bc649987"><path d="M 1036 134 L 1369 134 L 1369 267.410156 L 1036 267.410156 Z M 1036 134 " clip-rule="nonzero"/></clipPath><clipPath id="a1de561699"><path d="M 1036 184 L 1358 184 L 1358 267.410156 L 1036 267.410156 Z M 1036 184 " clip-rule="nonzero"/></clipPath><clipPath id="1c0dc409e8"><path d="M 750 429 L 989 429 L 989 524.375 L 750 524.375 Z M 750 429 " clip-rule="nonzero"/></clipPath><clipPath id="f1417d6639"><path d="M 750 465 L 981 465 L 981 524.375 L 750 524.375 Z M 750 465 " clip-rule="nonzero"/></clipPath><clipPath id="bbfe6bddac"><path d="M 1180 388 L 1414 388 L 1414 823.761719 L 1180 823.761719 Z M 1180 388 " clip-rule="nonzero"/></clipPath></defs><rect x="-150" width="1800" fill="#ffffff" y="-89.999999" height="1079.999988" fill-opacity="1"/><rect x="-150" width="1800" fill="#ffffff" y="-89.999999" height="1079.999988" fill-opacity="1"/><rect x="-150" width="1800" fill="#f8f1d5" y="-89.999999" height="1079.999988" fill-opacity="1"/><g clip-path="url(#77bc649987)"><path fill="#fffbea" d="M 1365.511719 243.003906 C 1363.371094 240.59375 1359.996094 239.347656 1356.808594 239.796875 C 1356.648438 239.820312 1356.484375 239.84375 1356.328125 239.878906 C 1356.132812 236.546875 1354.820312 233.300781 1352.511719 230.792969 C 1349.914062 227.96875 1346.523438 226.636719 1342.964844 226.503906 C 1343.757812 223.382812 1346.203125 220.71875 1344.988281 217.074219 C 1343.34375 212.105469 1338.351562 208.453125 1333.128906 208.390625 C 1331.484375 208.375 1329.820312 208.671875 1328.203125 208.347656 C 1326.59375 208.019531 1327.441406 205.800781 1327.515625 204.152344 C 1327.769531 198.363281 1327.824219 191.9375 1324.015625 187.570312 C 1321.730469 184.941406 1318.339844 183.496094 1314.914062 182.914062 C 1311.941406 182.414062 1308.503906 182.179688 1305.523438 182.933594 C 1304.761719 183.117188 1304.03125 183.371094 1303.347656 183.703125 C 1303.367188 182.675781 1303.328125 181.664062 1303.238281 180.660156 C 1301.378906 159.347656 1275.972656 142.972656 1255.445312 148.464844 C 1250.613281 149.753906 1237.136719 156.109375 1239.339844 163.558594 C 1235.957031 152.140625 1227.449219 142.203125 1217.007812 136.648438 C 1209.042969 132.417969 1195.828125 135.367188 1188.417969 139.582031 C 1173.660156 147.980469 1165.335938 165.367188 1165.132812 182.363281 C 1165.132812 179.316406 1152.359375 177.125 1150.164062 176.847656 C 1142.15625 175.835938 1135.664062 182.4375 1130.914062 188.578125 C 1125.441406 195.664062 1127.050781 203.328125 1124.242188 211.171875 C 1124.570312 209.394531 1112.703125 211.410156 1111.539062 212.203125 C 1107.621094 214.886719 1106.039062 220.109375 1104.839844 224.464844 C 1102.628906 220.277344 1096.183594 219.386719 1092.746094 222.492188 C 1092.484375 222.714844 1092.242188 222.972656 1092.023438 223.253906 C 1090.972656 224.574219 1090.382812 226.191406 1089.4375 227.589844 C 1088.578125 228.863281 1087.472656 229.878906 1086.234375 230.742188 C 1086.199219 230.703125 1086.171875 230.660156 1086.136719 230.621094 C 1081.664062 225.582031 1073.382812 226.46875 1067.492188 229.738281 C 1064.347656 231.480469 1061.421875 234.195312 1059.699219 237.324219 C 1058.28125 237.261719 1056.855469 237.472656 1055.546875 238.003906 C 1050.539062 240.039062 1047.589844 245.304688 1047.226562 250.578125 C 1047.203125 250.949219 1047.199219 251.316406 1047.199219 251.6875 C 1044.941406 254.453125 1043.933594 258.269531 1045.320312 261.597656 C 1044.34375 260.761719 1043.070312 260.332031 1041.789062 260.308594 C 1040.15625 260.273438 1038.503906 260.882812 1037.402344 262.097656 C 1036.128906 263.507812 1035.738281 265.585938 1036.199219 267.425781 L 1356.898438 267.425781 C 1357.238281 266.375 1357.277344 265.230469 1357.183594 264.121094 C 1356.996094 261.839844 1356.226562 259.644531 1355.042969 257.691406 L 1367.511719 257.691406 C 1368.785156 252.539062 1368.945312 246.855469 1365.511719 243.003906 Z M 1365.511719 243.003906 " fill-opacity="1" fill-rule="nonzero"/></g><path fill="#ffffff" d="M 1367.511719 257.691406 L 1048.84375 257.691406 C 1047.824219 256.097656 1047.277344 254.164062 1047.203125 252.257812 C 1047.183594 251.699219 1047.191406 251.136719 1047.226562 250.578125 C 1047.585938 245.304688 1050.539062 240.039062 1055.546875 238.003906 C 1057.972656 237.015625 1060.8125 237.109375 1063.253906 238.058594 C 1065.957031 239.109375 1068.171875 241.226562 1068.773438 244.078125 C 1069.378906 239.539062 1073.804688 236.589844 1077.992188 234.761719 C 1082.183594 232.9375 1086.871094 231.378906 1089.4375 227.589844 C 1090.382812 226.191406 1090.972656 224.574219 1092.023438 223.253906 C 1092.242188 222.972656 1092.484375 222.714844 1092.746094 222.492188 C 1096.183594 219.386719 1102.628906 220.277344 1104.839844 224.464844 C 1106.039062 220.109375 1107.621094 214.886719 1111.539062 212.203125 C 1112.703125 211.410156 1124.570312 209.394531 1124.242188 211.171875 C 1127.050781 203.328125 1125.441406 195.664062 1130.914062 188.578125 C 1135.664062 182.4375 1142.15625 175.835938 1150.164062 176.847656 C 1152.359375 177.125 1165.132812 179.316406 1165.132812 182.363281 C 1165.335938 165.367188 1173.660156 147.980469 1188.417969 139.582031 C 1195.828125 135.367188 1209.042969 132.417969 1217.007812 136.648438 C 1227.449219 142.203125 1235.957031 152.140625 1239.339844 163.558594 C 1237.136719 156.109375 1250.613281 149.753906 1255.445312 148.464844 C 1275.972656 142.972656 1301.378906 159.347656 1303.238281 180.660156 C 1303.328125 181.664062 1303.367188 182.675781 1303.347656 183.703125 C 1304.03125 183.371094 1304.761719 183.117188 1305.523438 182.933594 C 1308.503906 182.179688 1311.941406 182.414062 1314.914062 182.914062 C 1318.339844 183.496094 1321.730469 184.941406 1324.015625 187.570312 C 1327.824219 191.9375 1327.769531 198.363281 1327.515625 204.152344 C 1327.441406 205.800781 1326.59375 208.019531 1328.203125 208.351562 C 1329.820312 208.671875 1331.484375 208.375 1333.128906 208.390625 C 1338.351562 208.453125 1343.34375 212.105469 1344.988281 217.074219 C 1346.203125 220.71875 1343.757812 223.382812 1342.964844 226.503906 C 1346.527344 226.636719 1349.914062 227.96875 1352.511719 230.792969 C 1354.820312 233.300781 1356.132812 236.546875 1356.328125 239.878906 C 1356.484375 239.84375 1356.648438 239.820312 1356.808594 239.796875 C 1359.996094 239.347656 1363.371094 240.59375 1365.511719 243.003906 C 1368.945312 246.855469 1368.785156 252.539062 1367.511719 257.691406 Z M 1367.511719 257.691406 " fill-opacity="1" fill-rule="nonzero"/><g clip-path="url(#a1de561699)"><path fill="#fffbea" d="M 1356.898438 267.425781 L 1036.199219 267.425781 C 1035.738281 265.585938 1036.128906 263.507812 1037.402344 262.097656 C 1038.503906 260.882812 1040.15625 260.273438 1041.789062 260.308594 C 1043.070312 260.332031 1044.34375 260.761719 1045.320312 261.597656 C 1042.679688 255.261719 1048.714844 247.15625 1055.523438 247.890625 C 1056.289062 247.96875 1057.136719 248.128906 1057.8125 247.792969 C 1057.875 247.761719 1057.929688 247.730469 1057.984375 247.695312 C 1058.683594 247.238281 1059.378906 245.835938 1058.539062 245.835938 C 1056.582031 239.480469 1061.683594 232.960938 1067.492188 229.738281 C 1073.382812 226.46875 1081.664062 225.582031 1086.136719 230.621094 C 1086.582031 231.128906 1086.972656 231.660156 1087.308594 232.222656 C 1091.007812 238.417969 1088.394531 247.707031 1092.847656 253.6875 C 1096.847656 247.230469 1103.453125 239.804688 1111.398438 246.222656 C 1113.628906 248.023438 1113.652344 251.273438 1115.5 252.984375 C 1119.253906 256.453125 1121.167969 250.484375 1125.023438 248.683594 C 1128.882812 246.882812 1133.089844 248.386719 1136.855469 249.851562 C 1137.734375 246.300781 1135.613281 242.757812 1135.082031 239.136719 C 1134.113281 232.484375 1139.019531 225.871094 1145.347656 223.628906 C 1149.789062 222.050781 1154.464844 222.441406 1158.910156 223.78125 C 1164.003906 225.3125 1165.234375 227.46875 1166.644531 221.109375 C 1168.300781 213.621094 1173.304688 207.378906 1178.371094 201.625 C 1181.777344 197.757812 1185.453125 193.863281 1190.25 191.972656 C 1192.925781 190.925781 1195.828125 190.558594 1198.703125 190.546875 C 1205.578125 190.527344 1212.648438 192.671875 1217.617188 197.433594 C 1222.632812 202.253906 1224.015625 208.566406 1223.339844 215.246094 C 1228.1875 209.242188 1231.789062 206.445312 1239.742188 207.335938 C 1240.777344 207.453125 1248.738281 211.808594 1248.585938 212.144531 C 1253.414062 201.050781 1257.789062 190.605469 1269.914062 186.050781 C 1279.152344 182.578125 1290.039062 183.691406 1297.660156 190.265625 C 1297.707031 190.308594 1297.757812 190.34375 1297.800781 190.394531 C 1298.609375 191.101562 1299.378906 191.859375 1300.085938 192.664062 C 1305.929688 199.261719 1308.386719 208.777344 1306.515625 217.441406 C 1305.59375 221.6875 1303.753906 226.25 1305.632812 230.171875 C 1309.238281 225.675781 1317.992188 228.183594 1318.6875 233.90625 C 1318.96875 236.230469 1318.242188 238.933594 1319.800781 240.675781 C 1322.992188 237.273438 1328.511719 236.359375 1332.625 238.550781 C 1336.679688 240.71875 1336.972656 243.988281 1338.269531 247.835938 C 1339.015625 250.046875 1337.785156 250.15625 1338.898438 250.722656 C 1339.125 250.835938 1339.441406 250.96875 1339.886719 251.140625 C 1340.8125 251.488281 1343.726562 250.179688 1345.183594 250.484375 C 1351.523438 251.828125 1356.648438 257.652344 1357.183594 264.121094 C 1357.277344 265.230469 1357.238281 266.375 1356.898438 267.425781 Z M 1356.898438 267.425781 " fill-opacity="1" fill-rule="nonzero"/></g><g clip-path="url(#1c0dc409e8)"><path fill="#fffbea" d="M 986.089844 507.015625 C 984.5625 505.304688 982.152344 504.417969 979.878906 504.738281 C 979.765625 504.753906 979.648438 504.773438 979.535156 504.796875 C 979.394531 502.425781 978.460938 500.121094 976.8125 498.335938 C 974.960938 496.328125 972.542969 495.378906 970 495.285156 C 970.566406 493.066406 972.3125 491.171875 971.445312 488.578125 C 970.269531 485.046875 966.710938 482.449219 962.980469 482.40625 C 961.808594 482.394531 960.621094 482.605469 959.46875 482.375 C 958.320312 482.140625 958.921875 480.5625 958.976562 479.390625 C 959.160156 475.273438 959.199219 470.703125 956.480469 467.597656 C 954.847656 465.730469 952.429688 464.703125 949.984375 464.289062 C 947.863281 463.933594 945.410156 463.765625 943.28125 464.300781 C 942.738281 464.433594 942.21875 464.613281 941.730469 464.847656 C 941.742188 464.117188 941.71875 463.398438 941.652344 462.6875 C 940.324219 447.53125 922.195312 435.886719 907.546875 439.789062 C 904.097656 440.707031 894.480469 445.226562 896.054688 450.523438 C 893.640625 442.40625 887.570312 435.335938 880.121094 431.390625 C 874.433594 428.378906 865.007812 430.476562 859.71875 433.472656 C 849.1875 439.445312 843.246094 451.808594 843.101562 463.898438 C 843.101562 461.730469 833.984375 460.171875 832.421875 459.976562 C 826.703125 459.253906 822.074219 463.949219 818.683594 468.316406 C 814.777344 473.355469 815.925781 478.804688 813.921875 484.382812 C 814.15625 483.117188 805.6875 484.550781 804.859375 485.117188 C 802.0625 487.023438 800.933594 490.738281 800.078125 493.835938 C 798.5 490.859375 793.902344 490.226562 791.449219 492.429688 C 791.261719 492.59375 791.085938 492.773438 790.929688 492.972656 C 790.183594 493.914062 789.761719 495.0625 789.085938 496.058594 C 788.472656 496.960938 787.683594 497.683594 786.800781 498.296875 C 786.777344 498.269531 786.757812 498.242188 786.730469 498.214844 C 783.539062 494.628906 777.628906 495.261719 773.425781 497.582031 C 771.183594 498.824219 769.097656 500.753906 767.867188 502.980469 C 766.855469 502.9375 765.835938 503.085938 764.902344 503.464844 C 761.328125 504.910156 759.222656 508.65625 758.964844 512.402344 C 758.949219 512.667969 758.945312 512.929688 758.945312 513.191406 C 757.335938 515.160156 756.613281 517.875 757.605469 520.242188 C 756.90625 519.644531 756 519.339844 755.085938 519.324219 C 753.917969 519.296875 752.742188 519.730469 751.953125 520.597656 C 751.042969 521.601562 750.765625 523.078125 751.097656 524.382812 L 979.941406 524.382812 C 980.1875 523.636719 980.214844 522.824219 980.148438 522.035156 C 980.011719 520.414062 979.464844 518.851562 978.621094 517.464844 L 987.515625 517.464844 C 988.425781 513.796875 988.539062 509.757812 986.089844 507.015625 Z M 986.089844 507.015625 " fill-opacity="1" fill-rule="nonzero"/></g><path fill="#ffffff" d="M 987.515625 517.464844 L 760.117188 517.464844 C 759.394531 516.332031 759 514.953125 758.949219 513.597656 C 758.9375 513.203125 758.941406 512.804688 758.964844 512.402344 C 759.222656 508.65625 761.328125 504.910156 764.902344 503.464844 C 766.632812 502.761719 768.660156 502.824219 770.402344 503.503906 C 772.332031 504.25 773.910156 505.753906 774.339844 507.78125 C 774.773438 504.554688 777.929688 502.457031 780.917969 501.15625 C 783.910156 499.859375 787.253906 498.75 789.085938 496.058594 C 789.761719 495.0625 790.183594 493.914062 790.929688 492.972656 C 791.085938 492.773438 791.261719 492.59375 791.449219 492.429688 C 793.902344 490.226562 798.5 490.859375 800.078125 493.835938 C 800.933594 490.738281 802.0625 487.023438 804.855469 485.117188 C 805.6875 484.550781 814.15625 483.117188 813.921875 484.382812 C 815.925781 478.804688 814.777344 473.355469 818.683594 468.316406 C 822.074219 463.949219 826.703125 459.253906 832.417969 459.976562 C 833.984375 460.171875 843.101562 461.730469 843.101562 463.898438 C 843.246094 451.808594 849.1875 439.445312 859.71875 433.472656 C 865.007812 430.476562 874.433594 428.378906 880.121094 431.390625 C 887.570312 435.335938 893.644531 442.40625 896.054688 450.523438 C 894.480469 445.226562 904.097656 440.707031 907.546875 439.789062 C 922.195312 435.886719 940.324219 447.53125 941.652344 462.6875 C 941.71875 463.398438 941.742188 464.117188 941.730469 464.847656 C 942.21875 464.613281 942.738281 464.433594 943.28125 464.300781 C 945.410156 463.765625 947.863281 463.933594 949.984375 464.289062 C 952.429688 464.699219 954.847656 465.730469 956.480469 467.597656 C 959.199219 470.703125 959.160156 475.273438 958.976562 479.390625 C 958.921875 480.5625 958.320312 482.140625 959.46875 482.375 C 960.621094 482.605469 961.808594 482.394531 962.980469 482.40625 C 966.710938 482.449219 970.269531 485.046875 971.445312 488.578125 C 972.3125 491.171875 970.566406 493.066406 970 495.285156 C 972.542969 495.378906 974.960938 496.328125 976.8125 498.335938 C 978.460938 500.121094 979.394531 502.425781 979.535156 504.796875 C 979.648438 504.773438 979.765625 504.753906 979.878906 504.738281 C 982.152344 504.417969 984.5625 505.304688 986.089844 507.015625 C 988.539062 509.757812 988.425781 513.796875 987.515625 517.464844 Z M 987.515625 517.464844 " fill-opacity="1" fill-rule="nonzero"/><g clip-path="url(#f1417d6639)"><path fill="#fffbea" d="M 979.941406 524.382812 L 751.097656 524.382812 C 750.765625 523.078125 751.042969 521.601562 751.953125 520.597656 C 752.742188 519.734375 753.917969 519.296875 755.085938 519.324219 C 756 519.339844 756.90625 519.644531 757.605469 520.242188 C 755.71875 515.734375 760.027344 509.972656 764.886719 510.492188 C 765.433594 510.550781 766.039062 510.664062 766.519531 510.425781 C 766.5625 510.402344 766.601562 510.378906 766.640625 510.355469 C 767.140625 510.027344 767.636719 509.035156 767.039062 509.035156 C 765.640625 504.511719 769.28125 499.878906 773.425781 497.582031 C 777.628906 495.261719 783.539062 494.628906 786.730469 498.214844 C 787.050781 498.574219 787.328125 498.953125 787.566406 499.351562 C 790.207031 503.757812 788.339844 510.363281 791.519531 514.617188 C 794.375 510.023438 799.089844 504.742188 804.757812 509.308594 C 806.347656 510.589844 806.367188 512.898438 807.683594 514.117188 C 810.363281 516.582031 811.726562 512.339844 814.480469 511.058594 C 817.234375 509.777344 820.234375 510.84375 822.925781 511.886719 C 823.550781 509.363281 822.035156 506.84375 821.65625 504.269531 C 820.964844 499.539062 824.46875 494.835938 828.984375 493.238281 C 832.152344 492.121094 835.488281 492.398438 838.660156 493.347656 C 842.296875 494.4375 843.175781 495.972656 844.179688 491.449219 C 845.363281 486.125 848.933594 481.6875 852.546875 477.59375 C 854.980469 474.84375 857.601562 472.074219 861.023438 470.730469 C 862.933594 469.984375 865.003906 469.722656 867.058594 469.714844 C 871.964844 469.703125 877.007812 471.226562 880.554688 474.613281 C 884.132812 478.042969 885.121094 482.527344 884.636719 487.28125 C 888.097656 483.011719 890.667969 481.019531 896.34375 481.65625 C 897.082031 481.738281 902.761719 484.835938 902.652344 485.074219 C 906.097656 477.1875 909.222656 469.757812 917.871094 466.519531 C 924.464844 464.050781 932.234375 464.839844 937.671875 469.515625 C 937.707031 469.546875 937.742188 469.570312 937.769531 469.605469 C 938.347656 470.109375 938.898438 470.648438 939.402344 471.222656 C 943.574219 475.914062 945.324219 482.679688 943.992188 488.839844 C 943.332031 491.859375 942.019531 495.105469 943.359375 497.890625 C 945.933594 494.695312 952.179688 496.480469 952.675781 500.550781 C 952.875 502.203125 952.359375 504.125 953.472656 505.363281 C 955.746094 502.945312 959.6875 502.292969 962.625 503.851562 C 965.515625 505.394531 965.726562 507.71875 966.652344 510.453125 C 967.183594 512.027344 966.304688 512.105469 967.097656 512.507812 C 967.261719 512.585938 967.488281 512.683594 967.804688 512.804688 C 968.464844 513.050781 970.542969 512.121094 971.582031 512.339844 C 976.105469 513.296875 979.765625 517.433594 980.148438 522.035156 C 980.214844 522.824219 980.1875 523.636719 979.941406 524.382812 Z M 979.941406 524.382812 " fill-opacity="1" fill-rule="nonzero"/></g><path fill="#9ba66b" d="M 1447.171875 509.144531 C 1449.652344 512.375 1449.648438 516.792969 1448.296875 520.433594 C 1444.710938 530.023438 1434.09375 531.863281 1424.621094 532.085938 C 1420.679688 536.273438 1414.109375 538.136719 1408.449219 539.007812 C 1401.714844 540.03125 1395.769531 538.625 1389.695312 535.894531 C 1383.097656 532.921875 1377.597656 530.535156 1370.113281 531.003906 C 1363.273438 531.429688 1356.558594 533.175781 1349.675781 533.109375 C 1339.386719 533.007812 1329.035156 527.882812 1326.5625 517.652344 C 1324.191406 507.824219 1332.011719 500.117188 1341.277344 497.355469 C 1347.171875 495.601562 1353.320312 495.941406 1359.402344 495.523438 C 1365.546875 495.105469 1370.433594 493.265625 1375.167969 489.523438 C 1384.058594 482.507812 1390.925781 474.304688 1402.328125 470.835938 C 1412.324219 467.792969 1424.828125 468.144531 1433.777344 473.84375 C 1438.105469 476.597656 1441.929688 480.734375 1442.875 485.753906 C 1443.796875 490.632812 1440.136719 494.648438 1440.722656 499.324219 C 1441.253906 503.519531 1444.75 505.992188 1447.171875 509.144531 Z M 1249.117188 546.386719 C 1243.324219 544.414062 1238.023438 545.867188 1232.300781 547.113281 C 1228.429688 547.957031 1222.066406 550.722656 1218.21875 549.566406 C 1214.257812 548.367188 1211.46875 546.003906 1207.089844 545.632812 C 1202.847656 545.269531 1198.457031 545.949219 1194.226562 546.269531 C 1189.65625 546.617188 1184.8125 546.597656 1180.339844 547.671875 C 1173.683594 549.269531 1155.28125 568.050781 1166.863281 573.863281 C 1180.636719 580.765625 1196.34375 583.703125 1211.65625 582.25 C 1220.925781 581.371094 1229.964844 578.933594 1238.953125 576.507812 C 1243.417969 575.304688 1247.960938 574.066406 1251.859375 571.578125 C 1255.757812 569.089844 1258.988281 565.109375 1259.40625 560.5 C 1259.980469 554.246094 1255.058594 548.40625 1249.117188 546.386719 Z M 1329.980469 445.226562 C 1330.09375 442.09375 1329.605469 439.148438 1328.65625 436.394531 C 1339.945312 432.019531 1350.226562 425.457031 1358.4375 417.253906 C 1380.5 438.269531 1420.671875 441.0625 1445.992188 422.789062 C 1463.738281 409.996094 1478.292969 378.339844 1464.898438 358.945312 C 1460.714844 352.894531 1454.082031 349.011719 1446.441406 346.125 C 1431.984375 340.660156 1413.921875 338.773438 1402.074219 332.535156 C 1395.65625 329.152344 1390.351562 324.285156 1384.265625 320.460938 C 1373.382812 313.636719 1360.65625 308.832031 1347.683594 306.429688 C 1322.746094 301.820312 1304.4375 309.320312 1280.746094 313.566406 C 1264.511719 316.480469 1245.832031 311.945312 1230.597656 309.574219 C 1207.949219 306.054688 1183.753906 313.273438 1167.433594 327.785156 C 1152.027344 341.488281 1143.578125 361.746094 1147.230469 381.230469 C 1150.425781 398.28125 1162.710938 412.683594 1181.097656 417.652344 C 1177.828125 420.753906 1175.132812 424.398438 1173.207031 428.460938 C 1156.703125 418.894531 1135.4375 422.070312 1121.816406 436.308594 C 1117.234375 437.519531 1112.820312 439.238281 1108.734375 441.667969 C 1098.925781 447.503906 1091.335938 458.089844 1091.65625 469.507812 C 1091.976562 480.925781 1102.015625 491.964844 1113.390625 491.0625 C 1112.15625 491.160156 1121.933594 503.773438 1123.253906 504.726562 C 1129.433594 509.195312 1135.214844 509.363281 1142.417969 509.757812 C 1158.691406 510.652344 1173.726562 508.160156 1188.625 501.097656 C 1198.625 510.234375 1212.863281 511.996094 1226.226562 510.902344 C 1246.371094 509.242188 1266.433594 504.152344 1286.265625 500.433594 C 1304.125 497.078125 1327.007812 495.722656 1338.152344 479.078125 C 1345.976562 467.398438 1343.058594 449.714844 1329.980469 445.226562 Z M 1329.980469 445.226562 " fill-opacity="1" fill-rule="nonzero"/><g clip-path="url(#bbfe6bddac)"><path fill="#bd744d" d="M 1406.265625 512.429688 C 1405.632812 512.832031 1405.003906 513.261719 1404.375 513.628906 C 1400.84375 515.699219 1398.066406 516.328125 1394.335938 517.558594 C 1390.632812 518.789062 1386.285156 524.894531 1382.476562 521.636719 C 1379.714844 519.269531 1381.09375 514.148438 1378.707031 511.441406 C 1376.363281 508.796875 1370.476562 507.902344 1370.128906 512.714844 C 1370.054688 513.761719 1370.402344 514.792969 1370.75 515.789062 C 1373.476562 523.644531 1376.71875 530.398438 1372.890625 538.511719 C 1369.929688 544.78125 1363.0625 546.527344 1358.015625 550.527344 C 1350.050781 556.042969 1342.972656 563.667969 1334.320312 567.921875 C 1325.46875 572.273438 1317.210938 577.875 1308.4375 582.511719 C 1304.066406 584.820312 1298.738281 587.011719 1294.394531 584.65625 C 1287.785156 581.070312 1289.601562 574.421875 1289.535156 568.480469 C 1289.425781 559.1875 1287.335938 549.636719 1286.617188 540.34375 C 1287.480469 536.390625 1288.375 532.445312 1289.410156 528.527344 C 1291.460938 520.773438 1293.890625 512.945312 1295.789062 505.300781 C 1297.535156 498.273438 1300.871094 494.542969 1305.019531 488.550781 C 1310.851562 480.128906 1308.949219 470.644531 1311.738281 461.554688 C 1315.046875 450.765625 1319.046875 440.191406 1322.328125 429.386719 C 1323.367188 425.960938 1323.917969 421.703125 1325.859375 418.644531 C 1328.285156 414.828125 1333.425781 412.28125 1337.199219 410.054688 C 1344.832031 405.546875 1352.867188 401.726562 1361.347656 399.144531 C 1364.316406 398.242188 1365.589844 392.125 1361.511719 393.230469 C 1352.039062 395.804688 1341.546875 399.054688 1332.464844 404.195312 C 1331.527344 399.652344 1330.433594 395.203125 1330.441406 390.460938 C 1330.453125 386.195312 1324.667969 388.953125 1324.671875 392.183594 C 1324.683594 397.277344 1325.109375 402.796875 1327.410156 407.378906 C 1323.929688 409.8125 1320.757812 412.605469 1318.082031 415.84375 C 1314.6875 419.957031 1312.390625 424.917969 1310.386719 429.984375 C 1304.550781 439.222656 1301.726562 450.308594 1297.152344 460.144531 C 1291.898438 471.445312 1285.417969 482.5625 1276.359375 491.25 C 1273.0625 489.433594 1269.375 488.105469 1266.21875 486.585938 C 1256.882812 482.097656 1248.980469 475.3125 1239.945312 470.441406 C 1233.050781 466.722656 1228.554688 464.8125 1226.816406 456.253906 C 1226.398438 454.195312 1223.054688 434.933594 1219.265625 436.175781 C 1212.359375 438.460938 1212.582031 453.882812 1214.378906 461.898438 C 1211.050781 461.019531 1207.667969 460.363281 1204.046875 459.613281 C 1197.535156 458.269531 1190.496094 456.171875 1185.902344 451.125 C 1183.613281 448.609375 1178.609375 454.28125 1180.617188 456.777344 C 1188.449219 466.515625 1200.226562 469.699219 1210.921875 475.417969 C 1217.242188 478.796875 1223.332031 482.605469 1230.25 484.675781 C 1233.226562 485.566406 1235.808594 486.507812 1238.449219 487.875 C 1238.832031 488.136719 1239.21875 488.402344 1239.59375 488.664062 C 1248.964844 495.128906 1257.921875 502.261719 1265.351562 510.9375 C 1272.996094 519.867188 1266.039062 531.273438 1267.042969 541.289062 C 1267.734375 548.226562 1269.292969 561.082031 1265.75 567.476562 C 1257.414062 582.527344 1241.089844 560.171875 1231.667969 560.199219 C 1229.25 560.203125 1226.746094 561.835938 1226.347656 564.222656 C 1225.628906 568.53125 1239.488281 576.6875 1242.402344 579.8125 C 1264.285156 603.257812 1279.46875 655.886719 1276.074219 687.21875 C 1274.78125 699.121094 1270.472656 710.457031 1266.195312 721.640625 C 1254.527344 752.183594 1242.855469 782.726562 1231.183594 813.265625 C 1243.851562 815.664062 1255.960938 821.117188 1268.21875 823.058594 C 1273.25 823.855469 1310.199219 814.679688 1310.066406 814.515625 C 1298.789062 800.109375 1298.410156 779.878906 1302.046875 761.941406 C 1305.679688 744 1312.765625 726.769531 1314.726562 708.570312 C 1317.347656 684.199219 1307.972656 660.746094 1308.75 636.472656 C 1309.144531 624.148438 1313.050781 613.960938 1318.328125 603.0625 C 1319.800781 600.019531 1320.789062 593.5 1324.394531 592.285156 C 1326.558594 591.558594 1328.816406 593.511719 1330.925781 593.644531 C 1333.65625 593.816406 1335.878906 592.523438 1338.53125 592.21875 C 1343.351562 591.667969 1347.957031 594.777344 1352.648438 594.453125 C 1357.65625 594.109375 1363.289062 590.402344 1366.863281 587.121094 C 1367.855469 586.210938 1368.8125 585.191406 1369.277344 583.929688 C 1369.742188 582.664062 1369.605469 581.09375 1368.632812 580.164062 C 1367.210938 578.804688 1364.902344 579.371094 1363.042969 580.023438 C 1354.410156 583.054688 1350.542969 583.925781 1342.152344 580.132812 C 1350.316406 571.296875 1361.011719 564.597656 1369.445312 555.832031 C 1382.675781 542.078125 1397.21875 531.203125 1411.996094 519.316406 C 1411.996094 516.753906 1415.992188 515.390625 1412.640625 512.238281 C 1410.382812 510.113281 1408.300781 511.136719 1406.265625 512.429688 Z M 1406.265625 512.429688 " fill-opacity="1" fill-rule="nonzero"/></g><path fill="#c8dda8" d="M 1521.957031 938.339844 C 1524.605469 931.132812 1524.679688 923.230469 1519.671875 916.855469 C 1519.03125 916.039062 1474.105469 901.953125 1479.332031 900.332031 C 1500.925781 892.941406 1496.6875 875.394531 1476.929688 869.453125 C 1462.402344 865.085938 1446.980469 874.25 1433.566406 877.671875 C 1435.5625 869.957031 1436.929688 859.765625 1433.890625 852.097656 C 1430.59375 843.789062 1419.402344 838.109375 1412.28125 843.5625 C 1407.65625 847.105469 1406.335938 853.914062 1401.417969 857.046875 C 1396.75 860.019531 1390.644531 858.625 1385.304688 857.132812 C 1377.441406 854.9375 1369.578125 852.738281 1361.710938 850.542969 C 1366.640625 845.574219 1371.359375 840.402344 1375.855469 835.046875 C 1377.195312 833.453125 1364.511719 829.453125 1364.023438 828.703125 C 1358.03125 819.464844 1367.667969 822.863281 1369.136719 816.246094 C 1371.175781 807.03125 1385.992188 794.300781 1380.492188 784.085938 C 1372.90625 770.003906 1337.136719 776.609375 1325.953125 781.183594 C 1327.875 763.574219 1317.074219 745.332031 1300.648438 738.441406 C 1297.101562 736.953125 1293.167969 735.949219 1289.40625 736.777344 C 1285.503906 737.636719 1282.292969 740.34375 1278.566406 741.773438 C 1274.839844 743.207031 1269.65625 742.734375 1268.09375 739.078125 C 1268.09375 728.035156 1251.019531 706.296875 1240.402344 706.519531 C 1243.40625 689.652344 1246.445312 677.113281 1239.648438 660.730469 C 1231.882812 641.992188 1207.605469 631.832031 1192.628906 651.714844 C 1186.714844 640.921875 1180.28125 629.582031 1169.527344 623.503906 C 1158.777344 617.425781 1142.441406 619.386719 1137.371094 630.597656 C 1136.632812 632.230469 1136.117188 634.046875 1134.804688 635.269531 C 1128.128906 641.488281 1120.417969 626.886719 1113.683594 629.808594 C 1102.871094 634.507812 1114.277344 648.96875 1105.304688 655.828125 C 1099.078125 660.589844 1087.867188 652.277344 1080.921875 652.398438 C 1070.246094 652.585938 1049.535156 660.6875 1042.902344 669.398438 C 1034.5 680.433594 1044.34375 700.726562 1032.496094 708.003906 C 1026.257812 711.839844 1016.859375 709.261719 1011.929688 714.660156 C 1005.9375 721.222656 1012.644531 731.175781 1014.144531 739.910156 C 1020.753906 778.503906 940.632812 762.535156 938.855469 803.046875 C 938.398438 813.523438 945.28125 823.667969 943.269531 833.964844 C 941.886719 841.035156 935.988281 847.027344 928.902344 848.554688 C 921.8125 850.078125 913.945312 847.054688 909.742188 841.183594 C 904.6875 847.050781 899.636719 852.917969 894.582031 858.785156 C 890.5 853.472656 888.234375 847.039062 885.105469 841.125 C 877.683594 827.101562 865.71875 824.667969 851.078125 828.886719 C 827.933594 835.5625 844.652344 838.992188 832.550781 853.164062 C 828.703125 857.671875 821.011719 855.503906 816.804688 851.324219 C 812.597656 847.140625 809.984375 841.425781 805.171875 837.949219 C 797.433594 832.355469 784.992188 835.179688 780.460938 843.550781 C 778.671875 846.863281 778.996094 854.546875 778.519531 860.78125 C 778.210938 864.875 777.554688 868.34375 775.734375 869.535156 C 771.308594 872.429688 765.15625 865.183594 762.523438 866.789062 C 745.703125 877.050781 717.246094 878.070312 704.910156 895.066406 C 700.109375 901.679688 700.097656 912.4375 707.050781 916.773438 C 692.714844 907.832031 657.203125 922.960938 658.0625 938.339844 Z M 1521.957031 938.339844 " fill-opacity="1" fill-rule="nonzero"/></svg>